<?xml version="1.0" encoding="UTF-8"?>
<svg id="Ebene_2" data-name="Ebene 2" xmlns="http://www.w3.org/2000/svg" viewBox="0 0 251.74 196.27">
  <defs>
    <style>
      .cls-1 {
        fill: #f7f6ec;
      }

      .cls-2 {
        fill: #86afcd;
      }
    </style>
  </defs>
  <g id="Ebene_1-2" data-name="Ebene 1">
    <path class="cls-2" d="M196.33,70.95c14.98-.49,40.78-14.06,51.06,3.39,10.49,17.79-.1,41.81-9.39,57.96-18.36,31.91-57.55,61.46-95.21,63.63-48.72,2.81-97.29-11.06-127.77-51.03C-9.57,112.64-1.99,61.3,23.46,31.6,60.55-11.69,117.56-6.7,161.19,23.67c16,11.14,30.68,27.95,35.14,47.27Z"/>
    <path class="cls-1" d="M236.06,79.76c5.55,5.29,2.79,20.13.71,26.68-8.65,27.24-31.66,52.06-56.38,65.51-58.17,31.63-171.85-.87-167.88-78.99C14.91,45.69,51.55,8.96,99.95,12.58c29.61,2.21,75.09,28.03,83.72,58.14.95,3.3,1.48,14.13,3.34,14.71.89.28,16.34-1.73,18.6-2.16,6.44-1.22,25.21-8.5,30.45-3.5ZM89.47,18.57C31.08,19.59-1.87,95.59,35.04,139.45c-.28-8.22-3.99-16.32-5.23-24.74-5.42-36.82,12.98-70.4,44.01-89.32l15.65-6.81ZM109.45,21.57c-35.61-1.29-68.52,33.15-73.65,66.7-2.84,18.62.42,43.38,11.31,59.09,1.26,1.82,7.45,9.42,8.91,10.07.44.2,1.64.25,1.48-.49-15.4-22.47-16.61-55.34-7.73-80.68,7.83-22.33,24.52-39.37,46.02-48.88,4.49-1.99,10.31-2.64,13.66-5.81ZM136.42,31.54c-11.14-9.15-29.52-4.89-41.63.83-45.27,21.39-59.15,79.86-33.71,121.99,4.34,7.19,11.21,14.87,20.39,14.57-27.08-32.13-26.74-80.35,1.03-111.88,13.41-15.23,32.83-27.59,53.91-25.51ZM161.39,46.55c-12.65-8.97-21.56-12.5-37.33-9.89-53.25,8.82-75.86,85.31-41.54,124.24,6.86,7.78,19.49,15.54,29.93,16.02-31.79-15.87-39.95-53.9-26.15-85.11,1.25-2.83,3.73-10.12,7.19-7.8-12.12,28.01-13.12,61.57,13.64,81.24,41.19,30.29,94.58-6.02,116.62-42.87,4.37-7.31,9.31-15.94,10.46-24.51.15-1.12.98-5.4-.88-5.38-6.94,11.45-12.17,24.62-20.5,34.96-.75.16-.64-.96-.48-1.47,4.05-12.83,12.37-22.39,17.15-33.81.62-1.49,3.32-7.39,1.85-8.21-14.92-.99-29.52,6.88-44.88,5.64-1.06,21.75-14.85,45.4-39.46,42.74-3.42-.37-10.12-3.48-12.87-2.74-1.56.42-4.63,4.64-7.01,6.06-3.32,1.97-7.37,2.38-10.69,4.28,7.85,12.52,23.84,18.65,38.33,17.37,11.57-1.03,33.54-10.79,41.6-19.33,1.27-1.35,10.98-15.49,12.96-13.51-7.06,15.89-12.92,24.13-28.98,31.45-16.6,7.56-35.83,11.44-52.97,3.05-43.18-21.14-23.11-100.04,27.27-92.22,24.12,3.74,27.99,40.7,7.44,52.92-11.07,6.58-26.27-2.01-23.45-15.47.62-2.96,4.03-5.67,3.34-8.71-.96-1.87-17.79-8.26-20.05-8.04-3.88.36-11.38,19.73-10.02,23,.98,2.35,19.6,12.92,20.5,12-1.66-5.23-5.93-13.41-1-17.98,4.52,37.32,45.41,22.23,48.85-7.6,5.42-47.07-36.99-60.02-69.29-33.33-2.33,1.92-8.42,9.29-10.03,9.95-1.8.74-1.8-1.12-1.32-2.32,2.24-5.58,14.37-15.27,19.8-18.17,14.51-7.77,23.07-7.58,38.77-5.76,1.09.13,3.41,1.15,3.2-.7ZM125.44,83.49c9.23,3.91,24.16,2.68,21.91,16.44-.73,4.47-4.64,5.45-1.8,10.92,4.85,9.34,17.76,4.16,21.68-4.03,9.11-19.05-4.95-39.68-26.58-33.59-2.09.59-17.44,7.33-15.2,10.26ZM113.55,133.35c5.74.78,11.91-1.24,15.87-5.39l-18.95-11.48,3.09,16.88Z"/>
  </g>
</svg>