<?xml version="1.0" encoding="UTF-8"?>
<svg id="Ebene_2" data-name="Ebene 2" xmlns="http://www.w3.org/2000/svg" viewBox="0 0 233.77 231.13">
  <g id="Ebene_1-2" data-name="Ebene 1">
    <path d="M153.63,3.11c.91-.7-.17-2.77,3.63-2.96,8.44-.44,30.15,11.31,37.28,16.62,37.42,27.83,43.83,71.3,36.64,115.14-6.32,38.57-34.73,85.03-74.4,95.88s-107.67-7.11-131.86-44.39C3.93,151.05-7,126.33,4.92,86.89,20.2,36.34,85.84-3.26,137.41.21c3.1.21,15.57,3.41,16.23,2.9ZM213.54,58.01c-7.98-18.95-26.41-36.37-44.81-45.3C146.64,2,123.62,1.2,100.03,7.24c-.2,1.87,2.09.8,3.19.7,43.94-4.15,85.09,14.04,110.32,50.07ZM224.49,70.95c-6.2-32.4-33.85-59.45-65.71-66.7l25.42,12.91c13.47,9.05,24.63,21.03,32.5,35.21l7.79,18.59ZM136.86,24.16c.27,1.34-.38,2.45-1.67,2.85-2.48.78-15.79-3.11-19.9-3.7-12.65-1.79-39.28-3.2-50.5,2.96-10.14,5.57-28.48,33.15-33.68,43.99-18.1,37.69-20.61,93.95,16.8,121,53.35,38.57,137.2,26.38,163.81-37.98,28.29-68.4-10.2-132.71-82.48-141.94-16.97-2.17-41.42-2.77-55.13,8.81,21.37-3.34,41.81-.71,62.73,4ZM54.21,31.13c-1.87-.44-2.37,1.04-3.49,1.98-10.17,8.56-19.28,23.28-23.39,35.85l15.51-24.81,11.37-13.02ZM12.38,150.62c-5.32-27.92.79-56.58,10.2-82.91l10.71-20.65C9.33,70.41-1.34,112.47,9.11,144.43c.55,1.69,1.55,5.46,3.26,6.18ZM66.16,206.4c17.03,12.76,33.89,18,55.31,16.96,42.04-2.03,88.34-24.13,95.05-69.74l-10.54,18.82c-29.64,44.3-92.88,52.78-139.83,33.96ZM61.18,209.36c-7.5-5.24-13.6-11.98-20.44-17.89-.98-.84-6.7-5.66-7.44-5,6.87,9.77,16.66,18.63,27.88,22.88ZM190.64,203.41l-18.57,10.8c-12.39,5.36-25.45,8.93-38.82,10.97l-20.29,2.1c28.28,3.89,58.29-1.8,77.67-23.88Z"/>
  </g>
</svg>