<?xml version="1.0" encoding="UTF-8"?>
<svg id="Ebene_1" data-name="Ebene 1" xmlns="http://www.w3.org/2000/svg" xmlns:xlink="http://www.w3.org/1999/xlink" viewBox="0 0 30 30">
  <defs>
    <style>
      .cls-1 {
        fill: none;
      }

      .cls-2 {
        fill: #c3dde4;
      }

      .cls-3 {
        clip-path: url(#clippath);
      }

      .cls-4 {
        fill: #400a07;
      }
    </style>
    <clipPath id="clippath">
      <circle class="cls-1" cx="15" cy="14.99" r="15"/>
    </clipPath>
  </defs>
  <circle class="cls-2" cx="15" cy="15" r="15"/>
  <g class="cls-3">
    <path class="cls-4" d="M6.97,12.24c1.36-1.36,6.7-3.79,7.8-1.61,1.41,2.81-2.75,1.38-4.05,1.46-4.69.31-6.43,7.78-2.39,10.46,4.86,3.22,11.24-1.64,12.51-6.41-2.54.7-5.05,1.86-7.75,1.66-5.15-.37-4.15-5.06-1.56-4,.77.31.61,1.41,1.43,1.93,1.74,1.12,6.33-.07,8.09-1.06,2.73-1.52,3.62-6.94,6.63-9.19,3.99-2.98,5.68.55,2.75,4.21-1.83,2.29-5.01,3.42-6.62,5.52-2.81,3.65-3.35,8.36-8.84,9.92-9.17,2.61-14.23-6.67-7.98-12.91ZM29.77,5.56c-1.24.24-2.62,2.15-2.73,2.3-.61.86-1.09,1.75-2.01,3.56-.05.1-.6,1.18-.6,1.18h0c.68-.33,2.72-1.38,4.19-2.91,0,0,2.02-1.97,2.12-3.59,0-.07.01-.29-.12-.44-.22-.24-.68-.15-.85-.12h0Z"/>
  </g>
</svg>