<?xml version="1.0" encoding="UTF-8"?>
<svg id="Ebene_2" data-name="Ebene 2" xmlns="http://www.w3.org/2000/svg" viewBox="0 0 232.64 228.34">
  <defs>
    <style>
      .cls-1 {
        fill: #f7f6ec;
      }

      .cls-2 {
        fill: #86afcd;
      }
    </style>
  </defs>
  <g id="Ebene_1-2" data-name="Ebene 1">
    <path class="cls-2" d="M232.33,129.55c-.47-4.58-2.61-9.15-4.36-12.85.73-1.67,1.4-3.26,1.83-4.84,3.52-12.9,3.33-39.39-6.23-53.54-2.97-4.4-6.42-7.24-9.19-9.52-1.35-1.12-2.53-2.08-3.23-2.9-.39-.6-1.12-2.37-1.61-3.55-1.18-2.87-2.52-6.11-4.76-9.14-6.85-9.29-16.4-12.89-24.07-15.78-2.59-.98-5.04-1.9-7.16-2.94-1.48-.73-3.24-1.98-5.1-3.3-3.45-2.45-7.36-5.22-12.4-7-8.11-2.85-15.29-2.87-20.94-.09-2.04-.83-4.36-1.51-6.95-2.16-3.64-.9-8.59-1.85-11.45-1.94-9.09-.27-32.49,3.82-41.05,7.19-4.36,1.72-14.4,6.37-18.45,14-2.63.47-5.44,1.42-8.4,2.84-4.78,2.29-9.01,5.29-11.18,7.17-6.13,5.29-9.49,10.97-12.44,15.98-1.42,2.41-2.76,4.68-4.35,6.79-1.82,2.42-3.5,4.51-5.12,6.52-7.57,9.4-13.55,16.83-15.38,35.97-1.07,11.17.56,18.35,2.14,25.29.63,2.78,1.28,5.65,1.78,8.92.76,4.98.77,9.87.77,14.6.02,13.97.04,29.81,19.32,44.31,1.97,1.48,4.54,2.95,7.27,4.52,1.42.81,3.58,2.05,4.91,2.91.57,1.21,1.34,2.74,2.44,4.23,4.72,6.4,9.75,8.18,13.08,9.35,1.05.37,1.8.64,2.56,1.05,2.28,1.24,3.87,2.24,5.27,3.13,5.56,3.52,9.09,5.23,19.49,6.73,5.02.72,7.61,1.53,11.2,2.65,2.1.66,4.49,1.4,7.6,2.21,5.41,1.41,10.06,1.96,14.12,1.96,8.37,0,14.28-2.34,19.36-4.34,3.88-1.53,6.95-2.75,11.28-2.96,2.84-.14,5.32.04,7.94.24,7.32.55,15.62,1.17,27.11-5.73,6.6-3.96,10.13-8.66,12.97-12.44,1.46-1.94,2.61-3.48,3.98-4.64.45-.38,1.9-1.14,2.96-1.7,1.98-1.03,4.22-2.21,6.45-3.91,8.67-6.62,11.37-13.97,13.55-19.87.75-2.03,1.45-3.94,2.39-5.84,1.36-2.76,2.78-4.94,4.28-7.25,4.41-6.79,9.41-14.5,7.79-30.34Z"/>
    <g>
      <path class="cls-1" d="M223.38,130.59c-.28-2.76-1.95-6.28-3.43-9.39-.81-1.71-1.82-3.85-1.82-4.45,0-.54.92-2.62,1.52-4.01.65-1.48,1.26-2.89,1.53-3.86,3.3-12.08,1.92-34.61-4.73-44.46-2.07-3.07-4.61-5.16-7.06-7.17-1.75-1.44-3.4-2.8-4.75-4.42-1.29-1.55-2.25-3.87-3.27-6.33-.99-2.39-2.01-4.86-3.44-6.81-4.91-6.67-12.12-9.38-19.08-12-2.73-1.03-5.54-2.09-8.14-3.37-2.27-1.12-4.38-2.61-6.62-4.2-3-2.13-6.1-4.33-9.68-5.59-3.31-1.16-9.44-2.72-13.33-.06-1.96,1.34-3.05,3.52-3.23,6.48-.13.06-.33.1-.49.11-.18-.49-.43-1.42-.6-2.08-.37-1.39-.62-2.27-.89-2.75-1.65-2.92-15.57-5.21-17.48-5.26-7.57-.21-29.51,3.61-36.66,6.43-.11.04-11.12,4.5-13.01,9.45-.4,1.06-.37,2.11.1,3.04.3.6.86,1.03,1.45,1.5,1.27,1,2.29,1.79,1.42,3.83-2.49.91-3.11.19-4.1-.97-.5-.59-1.08-1.26-1.92-1.76-4.79-2.82-15.63,4.26-18.82,7.01-4.76,4.11-7.38,8.54-10.15,13.23-1.51,2.56-3.07,5.21-5.02,7.81-1.93,2.57-3.75,4.83-5.35,6.82-7.16,8.89-11.47,14.26-12.99,30.1-.9,9.41.4,15.15,1.91,21.8.67,2.97,1.37,6.03,1.93,9.69.89,5.8.89,11.11.9,16.25.02,13.05.03,24.31,14.92,35.51,1.41,1.06,3.7,2.37,6.12,3.76,3.22,1.85,6.87,3.94,8.1,5.31.31.35.7,1.19,1.08,2,.44.95.95,2.03,1.56,2.86,2.72,3.68,5.23,4.57,7.88,5.51,1.29.46,2.62.93,4.14,1.75,2.61,1.42,4.45,2.58,5.92,3.51,4,2.53,6.01,3.81,15.16,5.13,5.89.85,9.14,1.87,12.91,3.04,1.99.62,4.23,1.32,7.09,2.06,4.43,1.15,8.12,1.61,11.33,1.61,6.26,0,10.71-1.76,15.32-3.58,4.25-1.68,8.64-3.41,14.78-3.72,3.53-.18,6.47.04,9.32.26,6.5.49,12.12.91,20.6-4.19,4.75-2.86,7.33-6.29,9.83-9.61,1.72-2.29,3.34-4.45,5.64-6.41,1.39-1.19,3.15-2.11,5.01-3.08,1.66-.87,3.39-1.77,4.86-2.9,6.12-4.68,7.95-9.65,9.89-14.92.81-2.21,1.66-4.5,2.86-6.92,1.65-3.33,3.38-6,4.91-8.36,4.07-6.28,7.29-11.24,6.07-23.22ZM185.04,170.21c-.38-.35-.89-.5-1.45-.41-.58.09-.98.62-.92,1.21.14,1.35-.22,2.56-.61,3.85-.4,1.33-.82,2.7-.75,4.36.06,1.47.74,3.25,1.39,4.98.48,1.26,1.19,3.16,1.04,3.7-.67,2.42-8.14,10.42-10.66,12.3-7.04,5.28-14.18,5.02-21.73,4.76-5.22-.19-10.62-.38-16.25,1.24-3.14.9-5.58,1.89-7.72,2.76-4.82,1.96-8.3,3.37-16.3,2.73-4.05-.32-7.41-1.65-10.96-3.06-2.29-.91-4.66-1.84-7.21-2.48-3.09-.77-5.93-.99-8.68-1.21-4.39-.34-8.53-.66-13.05-3.24-1-.57-1.92-1.3-2.89-2.06-1.05-.83-2.13-1.68-3.36-2.35-1.06-.58-2.31-1.06-3.63-1.57-3.74-1.44-7.61-2.93-7.94-6.68-.05-.58.02-4.83.1-5.55.12-1.22.67-2.58,1.25-4.03,1.13-2.81,2.41-6,1.22-9.58-.1-.29-.31-.53-.59-.66-.15-.07-.3-.1-.46-.1-.14,0-.29.03-.42.08-2.92,1.21-2.49,3.63-2.23,5.07.08.47.17.96.12,1.22-.14.73-.83,1.73-1.56,2.79-1.09,1.6-2.37,3.47-2.61,5.53l-17.47-12.42c-7.33-8.27-7.36-17.74-7.38-27.76,0-3.61-.02-7.33-.38-11.08,1.3.66,3.01,1.48,4.47.62.62-.37,1.37-1.47,3.05-4.07.75-1.16,1.77-2.75,2.1-3.04.29-.26.84-.46,1.43-.68.95-.35,2.02-.74,2.78-1.65.86-1.03,1.12-2.23,1.35-3.28.39-1.8.61-2.79,3.22-2.98,1.09-.08,1.97.03,2.83.15,2.74.36,4.58.28,7.01-3.99.18-.32.19-.71.03-1.03-.16-.33-.48-.56-.84-.61-1.68-.23-2.66.94-3.31,1.72-.32.39-.66.79-.93.86-.59.15-1.34-.02-2.21-.22-1.69-.39-3.79-.87-6.41.48-2.45,1.26-2.99,3.3-3.38,4.79-.19.72-.35,1.34-.66,1.67-.43.47-1.33.87-2.29,1.3-1.94.87-4.49,2.01-5.19,4.81l-4.03-1.65c-6.64-18.65-3.76-40.36,7.21-54.17.97-1.22,2.1-2.37,3.29-3.58,1.48-1.5,3-3.05,4.3-4.85,1.63-2.25,3.01-4.69,4.35-7.05,1.76-3.11,3.59-6.32,5.96-9.07,4.34-5.02,9.14-8.03,16.47-10.3l3.12,3.08c.16.16.36.26.59.3l15.09,2.61c.71.52.89,2,1.06,3.32.18,1.46.36,2.84,1.22,3.68.27.26.44.32,2.61.93.84.24,2.1.59,2.34.7.51.27,1.07.76,1.67,1.28,1.55,1.35,3.68,3.21,6.66,2.26,1.38-.42,2.3-2,3.19-3.53.46-.79.93-1.6,1.34-1.99.39-.37.85-.54,1.34-.71.8-.29,2.29-.83,2.02-2.85-.07-.5-.47-.89-.98-.95-3.79-.38-6.86,2.07-8.31,6.61-1.15-.11-2-.95-3.18-2.21-.48-.51-.98-1.05-1.54-1.5-.53-.44-1.16-.67-1.73-.87-.48-.17-.97-.35-1.16-.59-.86-1.04-.71-2.21-.54-3.57.1-.81.21-1.66.06-2.47-.84-4.53-6.82-5.84-10.78-6.72-.26-.06-.51-.11-.75-.17l-2.75-5.56c1.16-1.15,5.91-3.69,8.19-4.69,7.79-3.4,30.05-7.27,37.81-6.57,2.83.25,10.35,1.95,11.33,2.99.12.49.11,1.21.1,1.92-.01.74-.02,1.5.09,2.24.14.86.42,1.55.65,2.11.48,1.18.56,1.37-1.37,2.39-.88.46-3.16,1.16-5.37,1.84-4.25,1.3-6.18,1.94-6.88,2.66-.81.83-.92,2.05-1.02,3.13-.05.6-.11,1.27-.26,1.52-.15.16-.81.5-1.25.72-.76.39-1.63.83-2.25,1.4-.35.32-1.08,1-.84,1.85.13.46.51.79,1.01.88,1.26.23,5.5-1.61,6.18-2.51.63-.83.73-1.72.8-2.44.1-.87.16-1.45.93-2.07.86-.6,7.94-2.93,9.99-3.33,2.95,4.15,1.57,7.17-.19,11.03-.22.48-.06,1.05.37,1.36.44.3,1.03.26,1.41-.12,1.58-1.55,3.25-2.6,5.09-3.21.21-.07.39-.2.52-.36,1.6-2.03,1.16-4.37.77-6.44-.24-1.25-.46-2.44-.19-3.34.21-.69,1.24-1.11,2.34-1.54,1.42-.57,3.02-1.21,3.77-2.78.88-1.85,1.59-5.47,1.75-7.95,5.2.36,9.63,3.35,14.3,6.51,2.61,1.77,5.32,3.6,8.16,4.91,2.51,1.16,4.94,2.03,7.28,2.86,5.86,2.09,10.92,3.9,15.53,9.52,1.04,1.26,7.82,13.81,8.31,15.36.06,1.69.12,5.57.06,7.18-.04,1.11-.39,5.01-.59,6.13-.18.12-.55.28-.81.4-.99.45-2.22,1.01-2.72,2.21-.66,1.58-.6,3.39-.54,4.98.02.67.05,1.29.02,1.88-.03.57.39,1.07.95,1.14.57.08,1.1-.29,1.22-.85l1.13-4.94c4.11-1.45,4.42-2.83,4.71-5.66.07-.65.14-1.38.29-2.25.04-.22.23-.54.41-.86.34-.57.75-1.29.75-2.15,0-.79-.33-1.49-.65-2.15-.38-.79-.63-1.37-.53-1.99,8.5,4.59,10.99,16.15,11.56,19.69,1.58,9.78,2.44,20.15-1.59,30.11l-2.74-5.15c-.06-.12-.15-.23-.26-.32-1.27-1.09-3.62-5.12-4.19-6.92-.32-1.01-.18-1.92-.01-2.98.21-1.32.44-2.81-.35-4.49-.2-.43-.66-.68-1.13-.63-.47.06-.86.42-.95.88l-1.36,6.97c-.03.17-.03.34.02.5.85,3.12,2.41,5.85,3.92,8.49.86,1.5,1.75,3.06,2.48,4.65l.76,1.64c1.76,3.81,3.75,8.14,5.21,11.61,5.05,12.03,1.24,18.23-4.02,26.82-1.05,1.71-2.14,3.49-3.23,5.42-1.51,2.68-2.64,5.5-3.73,8.21-2.01,5.01-3.9,9.74-7.98,13.47-1.98,1.81-4.6,3.21-7.14,4.57-.83.44-1.67.9-2.49,1.36-.87-1.42-2.55-4.64-2.73-5.19-.23-1.05,0-2.22.23-3.47.17-.88.34-1.78.37-2.73,0-.11.02-.24.03-.38.08-.84.19-1.99-.55-2.68ZM82.7,38.88l-7.46-1.43v-.58c.97.27,1.93.46,2.87.64,1.69.33,3.25.63,4.59,1.37ZM139.8,25.49c1.58-.62,2.18-2.28,2.76-3.88.52-1.42.9-2.32,1.48-2.77-.35,1.77-1.19,4.81-1.47,5.37-.19.37-1.27,1.04-2.15,1.58-1.04.64-2.31,1.43-3.36,2.42.03-.17.04-.33.04-.51,0-.95-.43-1.8-.85-2.61h0c1.4.65,2.56.78,3.55.39Z"/>
      <path class="cls-1" d="M127.84,51.48s.03,0,.04,0c.48-.02.89-.34,1.02-.8.06-.21.14-.4.25-.59.34-.57.68-1.13,1.04-1.69.17-.27.22-.59.14-.9-.2-.71-.3-1.37-.33-1.62-.05-.49.04-.95.16-1.47.11-.52.24-1.11.22-1.79-.01-.39-.22-.74-.56-.93-.34-.19-.75-.19-1.09,0-2.77,1.56-3.47,4.87-1.94,9.07.16.44.57.72,1.04.72Z"/>
      <path class="cls-1" d="M127.63,189.5c-2.1-1.29-5.16-1.12-7.78.45-2.85,1.7-4.45,4.53-4.28,7.58.02.44.31.82.72.97.12.04.25.07.38.07.3,0,.59-.12.8-.35l3.29-3.5c.18-.12.35-.25.53-.37,2.13-1.5,2.99-1.92,4.26-.75.38.35.59.86.8,1.39.38.92,1,2.47,3.05,2.23.53-.06.94-.49.97-1.02.29-4.19-1.6-6-2.75-6.71Z"/>
      <path class="cls-1" d="M131.62,153.78h0c-2.84,0-6.54,2.42-8.25,5.4-1.13,1.96-1.22,3.94-.28,5.57.19.33.54.54.92.55l1.93.05s.02,0,.03,0c.44,0,.84-.26,1.02-.67.18-.42.08-.9-.24-1.22-.36-.35-.7-.9-.15-1.94.96-1.81,3.67-3.38,5.4-3.55l.2,1.15c.06.38.32.69.67.84.35.15.76.09,1.07-.13,2.26-1.66,2.04-3.25,1.84-3.86-.45-1.37-2-2.18-4.15-2.18Z"/>
      <path class="cls-1" d="M167.06,107.34c-12.31.95-13.75,11.39-13.63,20.37,0,.35.18.68.46.88.19.13.41.2.64.2.12,0,.24-.02.35-.06,2.01-.67,2.53-4.92,2.58-5.41.08-.75-.08-1.43-.21-2.04-.13-.55-.24-1.07-.18-1.6.26-2.25,2.44-5.6,4.42-6.86l6.19-3.43c.45-.25.67-.79.52-1.28-.15-.5-.62-.82-1.14-.78Z"/>
      <path class="cls-1" d="M90.56,145.97c-.37-.17-.8-.12-1.12.12-.32.24-.49.64-.43,1.04l.45,3-1.62.56c-1.16-1.76-1.56-3.72-1.3-6.27.03-.31-.07-.62-.27-.85-.21-.23-.5-.36-.81-.37-.01,0-.03,0-.04,0-1.49,0-2.55.86-2.91,2.35-.67,2.85,1.35,7.85,3.12,8.71.62.3,1.29.45,1.97.45,1.04,0,2.11-.34,3.08-1.01,1.63-1.12,2.59-2.88,2.45-4.5-.12-1.4-1.03-2.56-2.57-3.26Z"/>
      <path class="cls-1" d="M35.07,165.64l-3.8-12.86c-.16-.53-.68-.86-1.22-.78-.54.08-.95.55-.94,1.09.02,8.89,3.53,19.23,11.32,22.28.13.05.27.08.4.08.35,0,.68-.16.89-.46.29-.41.28-.96-.04-1.35l-6.62-8.01Z"/>
      <path class="cls-1" d="M104.25,28.53c-3.41-.61-5.82,1.24-6.94,3.17-1.17,2-1.21,4.25-.1,5.59.4.48,1.19,1.13,2.56,1.13.56,0,1.22-.11,1.98-.38.4-.14,1.48-.52,1.49-1.52,0-.21-.05-.92-.93-1.26-.48-.19-1.41-.28-2.27-.1-.06-.52.09-1.03.43-1.5.69-.95,2.07-1.55,3.14-1.36.71.13,1.15.56,1.37,1.32.09.31.31.57.61.71.3.14.64.13.93,0,1.8-.85,1.93-2.01,1.85-2.62-.24-1.78-2.8-2.96-4.11-3.19Z"/>
      <path class="cls-1" d="M190.83,150.42c.07-.6-.35-1.14-.95-1.22-1.94-.26-2.77,1.23-3.27,2.12-.22.4-.47.85-.7.96-.52.26-1.21.41-1.95.57-2.13.45-5.04,1.07-5.28,5.35-.03.46.24.9.67,1.08.14.06.29.09.43.09.3,0,.6-.12.81-.35,1.25-1.34,2.74-1.76,4.32-2.21,2.51-.71,5.36-1.51,5.92-6.39Z"/>
      <path class="cls-1" d="M53.98,134.66c-.48-.21-1.03-.04-1.33.38l-1.56,2.23c-.77-.89-1.15-1.74-1.12-2.55.04-1.26,1-2.62,2.95-4.16.39-.3.52-.83.34-1.28-.19-.45-.65-.73-1.14-.68-2.43.27-4.35,1.66-5.25,3.83-.91,2.18-.62,4.69.73,6.39,1.01,1.27,2.47,1.94,4.18,1.94.39,0,.8-.04,1.22-.11.45-.08.81-.43.9-.88l.74-3.89c.1-.51-.17-1.02-.65-1.22Z"/>
      <path class="cls-1" d="M169.2,45.01l1.19-3.34c1.48,0,2.54.77,3.95,1.78l.14.1c.36.26.83.28,1.21.05.38-.23.58-.66.52-1.09-.33-2.48-1.81-4.27-3.96-4.8-2.05-.5-4.26.27-5.38,1.88-1.11,1.58-.97,3.65.37,5.67.21.31.55.49.92.49.04,0,.09,0,.14,0,.41-.05.76-.33.9-.73Z"/>
      <path class="cls-1" d="M135.2,96.9c-.83-.36-1.61-.71-2.08-1.22-.44-.47-.65-1.18-.88-1.93-.3-1-.65-2.14-1.66-2.84-.32-.22-.73-.26-1.08-.09-.35.16-.6.5-.64.88-.28,2.51.39,4.78,1.92,6.58,1.66,1.94,4.24,3.13,7.08,3.27.02,0,.04,0,.05,0,.35,0,.69-.17.9-.46.22-.3.27-.7.13-1.05-.71-1.82-2.32-2.53-3.75-3.15Z"/>
      <path class="cls-1" d="M33.34,142.08c.2,0,.41-.01.6-.04,1.15-.13,2.45-.68,2.66-1.8.07-.36.09-1.26-1.13-1.9-.07-.04-.15-.07-.23-.09l-1.9-.5.06-2.71c.01-.61-.46-1.11-1.07-1.13-1.48-.08-2.24.63-2.63,1.21-.93,1.38-.56,3.46.04,4.83.69,1.58,2.22,2.12,3.6,2.12Z"/>
      <path class="cls-1" d="M52.66,72.44c-.06-.55-.52-.98-1.07-.99-2.84-.07-3.26,2.56-3.53,4.12-.11.63-.23,1.34-.43,1.64-.19.29-.49.51-.84.78-1.35,1.02-2.49,2.21-1.59,5.48.12.45.52.77.99.81.05,0,.1,0,.15,0,.57,0,.94-.22,1.16-.42.59-.53.61-1.31.64-1.94.01-.32.03-.71.12-.9.23-.47.77-1.08,1.33-1.73,1.43-1.64,3.39-3.9,3.08-6.86Z"/>
      <path class="cls-1" d="M126.19,74.89c.14.06.29.09.44.09.31,0,.61-.13.83-.37l1.98-2.24c.27.1.66.3.95.44,1.15.58,2.59,1.3,3.85.62.82-.45,1.3-1.34,1.46-2.74.04-.34-.08-.67-.32-.91-.24-.24-.58-.36-.91-.31-.88.11-1.84-.04-2.77-.19-1.55-.25-3.16-.51-4.44.48-.97.75-1.52,2.02-1.71,4.01-.05.48.22.93.66,1.12Z"/>
      <path class="cls-1" d="M200.72,167.04l-3.58,6.47-4.17,3.88c-.37.35-.46.9-.21,1.34.2.36.57.57.96.57.1,0,.19-.01.29-.04,5.46-1.49,8.13-7.14,8.77-11.53.08-.53-.24-1.03-.74-1.2-.5-.17-1.06.05-1.32.51Z"/>
      <path class="cls-1" d="M189.96,165.66c-.88,1.18-1.06,2.69-.47,3.94.67,1.42,2.19,2.29,4.17,2.39.02,0,.04,0,.06,0,.4,0,.76-.21.96-.56.21-.36.19-.81-.04-1.16l-1.45-2.18,2.6-2.36c.32-.29.44-.73.31-1.14-.12-.41-.47-.71-.89-.77-2.19-.33-4.15.36-5.25,1.83Z"/>
      <path class="cls-1" d="M194.21,136.1c.3.05.6.09.88.09.48,0,.92-.1,1.27-.43.54-.51.47-1.17.43-1.57-.02-.19-.04-.38,0-.51.97-3.61,1.59-4.26,4.2-7.01l.18-.19c.35-.37.4-.94.12-1.37-.28-.43-.83-.6-1.31-.42-3.93,1.5-7.6,5.7-6.67,10.53.09.45.45.8.9.88Z"/>
      <path class="cls-1" d="M116.48,103.9c1.69-.43,3.12-2.27,3.25-4.17.11-1.61-.76-2.96-2.33-3.61-.09-.04-.19-.06-.29-.07-.81-.1-1.42.1-1.81.58-.64.79-.28,1.81.04,2.71.08.23.2.58.27.85l-1.9.54c-.34.09-.61.34-.73.67-.12.33-.08.69.1.99.67,1.05,1.61,1.61,2.64,1.61.25,0,.5-.03.76-.1Z"/>
      <path class="cls-1" d="M134.08,175.12l-4.15-.55c-.23-.03-.47.01-.68.13l-5.81,3.2c-.49.27-.7.86-.49,1.38.17.43.58.69,1.02.69.09,0,.19-.01.28-.04l9.96-2.64c.51-.14.85-.61.82-1.14-.03-.53-.43-.95-.96-1.02Z"/>
      <path class="cls-1" d="M159.95,101.71c.31.21.9.51,1.69.51s1.77-.29,2.9-1.25c.28-.24.43-.6.38-.97-.04-.37-.27-.69-.6-.86l-1.71-.86.9-2.01c.15-.33.12-.72-.07-1.03s-.53-.51-.9-.52c-1.95-.05-3.42.88-3.96,2.53s.05,3.58,1.37,4.46Z"/>
      <path class="cls-1" d="M155.95,152.67l-7.27,4.35c-.16.09-.29.23-.38.38l-1.36,2.29c-.26.44-.18,1.01.19,1.36.21.2.48.3.76.3.21,0,.43-.06.61-.19.79-.53,1.62-1,2.51-1.5,2.42-1.37,4.93-2.78,6.47-5.51.25-.44.17-.98-.19-1.33-.36-.35-.91-.42-1.34-.16Z"/>
      <path class="cls-1" d="M177.74,85.59c-2.98-2.03-4.3-3.88-6.3-6.68l-.73-1.02c-.31-.43-.89-.58-1.37-.35-.48.23-.73.77-.59,1.29,1.58,5.75,4.44,8.78,8.27,8.78.04,0,.07,0,.11,0,.48,0,.9-.32,1.04-.78.14-.46-.04-.96-.43-1.23Z"/>
    </g>
  </g>
</svg>