<?xml version="1.0" encoding="UTF-8"?>
<svg id="Ebene_2" data-name="Ebene 2" xmlns="http://www.w3.org/2000/svg" viewBox="0 0 220.82 277.25">
  <defs>
    <style>
      .cls-1 {
        fill: #f7f6ec;
      }

      .cls-2 {
        fill: #86afcd;
      }
    </style>
  </defs>
  <g id="Ebene_1-2" data-name="Ebene 1">
    <path class="cls-2" d="M89.49.78c28.94-1.66,63.7-1.07,91.87,5.66,13.06,3.12,35.44,9.85,38.05,25.14,3.18,18.57.09,41.14-.56,59.91-1.4,40.56-2.62,81.27-4.72,121.68-.47,9,1.04,21.85-4.27,29.69-4.84,7.15-30.72,22.33-39.38,26.64-16.27,8.09-29.82,5.84-47.31,6.45-14.85.52-30.34,1.94-45.32.97-13.84-.89-25.22-7.32-37.23-13.7-18.28-9.7-31.01-13.9-32.98-36.82C2.53,166.8-.23,101.31.01,41.54c.03-6.93,2.58-15.79,7.69-20.68C22.06,7.11,69.62,1.92,89.49.78Z"/>
    <g>
      <path class="cls-1" d="M15.45,33.8c5.65-6.71,36.32-13.01,45.59-14.29,39.03-5.41,103.6-7.78,139.64,9.13,6.23,2.92,8.06,4.88,8.77,11.98,1.49,15.05-.56,31.2-.97,46.17-.75,27.14-2.66,54.09-3.77,81.12-.86,20.91,1.6,45.49-1.95,65.97-.75,4.31-1.37,6.52-4.6,9.55-6.51,6.12-35.65,22.75-44.13,23.77-20.34,2.45-59.56,3.11-79.94,1.25-8.46-.78-31.6-13.78-39.73-18.74-5.62-3.43-11.92-6.09-13.29-13.12-1.76-9.03-1.47-21.37-2.1-30.92-3.29-49.68-4.79-98.3-5.71-148.05-.1-5.35-.95-20.1,2.2-23.83ZM95.15,20.61c-19.35.95-53.23,3.98-70.24,12.76-10.85,5.6-4.82,8.03,3.23,11.27,42.5,17.12,115.11,16.91,158.68,3.52,10.91-3.35,23.79-9.46,6.59-16.96-26.26-11.44-69.79-11.98-98.26-10.59ZM28.38,140.6c.26,5.29,0,10.73,0,16.04,0,2.22,1.86,8.96,2.59,11.56,1.3,4.62,3.67,8.82,4.95,13.43-1.95.42-2.15-1.01-3.04-2.14-3.48-4.43-6.4-12.81-7.07-18.4-.57-4.73-1.14-26.1-.07-29.73,1.68-5.72,14.42-6.89,18.01-9.1,1.96-1.2,8.68-10.39,11.01-12.81,1.17-1.22,5.93-6.1,7.1-6.08,1.55.03,1.18,1.1.46,2.32-2.83,4.81-21.24,22.86-20.61,26.3,1.7,3.73,5.57,2.04,8.72,2.6s9.98,1.53,12.27,2.82c1.17.65,2.04,1.26.58,2.28-7.86.22-33.58-.78-22.65-13.68-10.61,3-18.76,6.89-4.02,12.97,9.22,3.81,20.77,5.05,30.42,7.77v-77.35c2.47-.2,1.57-.13,1.86,1.42,1.33,7.16,1.7,17.94,1.96,25.42.6,17.12-1.12,34.38.95,51.41,27.47,3.64,55.58,3.83,83-.37l3.24-74.1c2.67,3.86,1.16,9.93,1.43,14.61.11,1.85.9,3.62.97,5.63.67,17.81-1.43,35.54-.98,53.33,15.15-2.02,54.45-15.25,16.55-22.69l-2.35,10.02c-3.06.54-9.53,1.83-9.49-2.42h6.6c-.43-4.36.92-9.87-.72-13.91-1.28-3.15-6.47-4.65-5.88-8.73.79-.86,7.75,4.26,8.5,5.16,1.9,2.29,1.7,5.85,1.94,6.08.41.4,8.52,1.38,11.24,2.44,7.88,3.09,9.82,5.66,10.43,14.1,1.16,15.96-2.12,35.02-7.57,50.05-.35.96-3.87,12.07-5.67,9.88-.02-8.84,5.04-16.9,7.07-25.46.69-2.89,2.36-10.25,2.36-12.74v-20.28c-5.58,4.53-12.09,7.95-18.85,10.39.81,1.85,2.9,1.49,4,4,3.36,7.68-6.8,22.35-6.84,30.89-2.92.69-1.92-2.2-1.76-4.13.49-5.89,6.05-17.74,5.59-21.8-.09-.82-.3-1.45-.98-1.96-1.04-.72-5.54,2.53-4.73-1.35l4.71-1.42c-4.09-4.52-9.55-2.49-14.18.15l.56,28.58c6.15,5.49,11.67,19.71,16.98,24.52,1.63,1.48,6.2,2.75,8.01,1.51l14.96-42.58,5.73-120.19c-9.61,7.51-21.91,10.6-33.77,12.91-39.14,7.63-81.12,8.1-119.96-1.1-11.99-2.84-24.48-5.91-34.87-12.75.16,5.18-.23,10.42-.05,15.6.54,15.01,2.35,30.19,2.91,45.2.67,18.04-1.09,39.9,1.01,57.47.8,6.71,5.86,13.53,8.55,19.75,2.27,5.25,8.07,21.67,11.21,24.64.75.71,5.99,4.15,6.55,3.89l20.01-29.09-.17-30.24-28.32-8.17,16.97,27.83,6.6,2.36c-.91,5.53-6.77,2.25-9.28-.62-3.92-4.49-11.99-19.08-14.78-24.89-.72-1.5-.69-4.3-.99-4.71-.35-.47-7.57-4.4-8.44-4.67-2.85-.89-.46,2.19-.45,2.34ZM71.76,151.45v28.77l35.38,43.85,12.71.48c11.74-14.95,22.31-30.86,35.84-44.33v-26.41c-.68-.88-.97-1.21-2.13-1.23-3.34-.08-9,1.54-12.5,1.7-9.15.42-18.27-.32-27.38,1l-27.78-1.92c1.26,3.53,4.51,7.56,5.48,11.02.35,1.24.54,2.87-1.22,2.16-3.24-1.3-6.17-10.13-7.68-13.29l-10.72-1.8ZM21.79,175.98c1.03,14.92,2.72,29.89,3.75,44.81.2,2.83-1.1,19.27,2.37,19.31,2.4-4.02,11.89-15.32,11.76-19.22l-17.88-44.9ZM200.02,182.57c-2.88-.51-1.45.86-1.97,2.23-2.16,5.59-4.04,11.29-5.59,17.1,2.49.72,6.06-.83,7.56-2.82v-16.51ZM71.76,186.35v32.07c0,.13,1.67.09,2.36.89,1.33,1.54,2.04,3.85,3.97,4.56,6.46,2.36,16.82.28,23.84,2.08l-30.18-39.61ZM67.98,187.29l-16.74,25.95c.21,3.06,13.43,7.64,16.28,8.93l1.35-2.22-.89-32.65ZM155.7,220.3v-33.01l-16.97,22.17,11.31-1.9c-3.79,4.55-9.38,6.38-15.07,5.62l-8.5,11.84h14.62c5.34,0,8.73-7.57,14.62-4.72ZM159.47,189.65c.51,10.48-.38,21.11,0,31.6,2.57-.3,15.93-7.32,15.94-8.96l-15.01-25-1.89.49c.09.87.95,1.58.96,1.87ZM199.08,206.15c-6.78-1.27-12.87,8.19-12.99,13.85-.04,1.94,9.35,14.22,10.64,17.26,1.41-.91,1.28-1.82,1.45-3.25,1.09-9.26.98-18.55.9-27.86ZM157.59,259.92c1.24,1.3,13.86-6.19,14.88-8.22.5-8.64,7.87-21.59,8.24-29.41.11-2.39-2.06-4.38-3.92-5.66l-17.18,9.94-2.01,33.35ZM68.84,226.06c-7.09-1.19-13.37-4.76-19.4-8.45-1.8-.18-4.02,3.2-3.87,4.9l10.16,29.87c-2.31.28-3.37-2.08-4.29-3.72-3.57-6.32-6.04-14.97-8.92-21.74l-10.35,14.62c7.03,4.67,14.49,9.03,21.98,12.9,5.98,3.08,18.62,10.37,24.69,10.28,1.26-.02,9.41-1.17,9.92-1.47.44-.26,4.45-6.97,5.66-8.48,3.1-3.89,13.1-14.07,14.61-17.52.31-.72.73-1.3.35-2.12l-5.26-6.15c-11.13-.29-21.63.59-32.35-3,.85,9.82.47,19.41-.47,29.23-1.63-2.81-2.16-8.53-2.35-11.8-.34-5.75.32-11.6-.11-17.35ZM135.1,262.59l20.19-1.67-.54-34.48-1.43-2.37c-7.92,8.01-23.51,2.32-30.95,4.87-.76.26-6.7,6.91-4.9,8.32,6.4,7.95,13.72,15.82,17.63,25.33ZM175.51,250.49l17.89-10.85-8.48-12.73c-1.28.1-1.5,1.38-1.92,2.31-3.01,6.67-4.63,14.48-7.49,21.27ZM130.23,262.75l-17.44-22.62c-7.56,7.49-13.38,16.93-22.17,23.09l39.61-.48Z"/>
      <path class="cls-1" d="M112.33,114.66c4.15-3.28,5.33-11.72,11.03-13,8.66-1.95,19.85,2.86,28.57,3.58l-.43,2.87c-1.71,2.36-18.12-2.34-22.22-2.47-.94-.03-2.54-.49-2.82,1.03-.17.94,6.85,12.21,7.75,14.87.61,1.79,1.31,2.04-.68,3.48l-10.48-16.91c-9.74,5.62-8.89,15.02-1.29,22.11l27.67,1.57,1.44,1.39.11,3.19c-12.21-.11-25.87-5.49-36.76,2.36l8.47,7.06c-4.48.26-8.09-3.58-11.8-5.63-2.35,2.01-1.91,6.43-6.12,5.63l4.71-9.41c-6.42-.45-30.72,10-34.89,5.64-.71-3.54,3.43-1.01,5.71-1.33,3.05-.44,9.34-3.72,13.15-4.78,7.1-1.99,14.41-4,21.69-5.19l-.74-4.45-14.34-27.16-24.53-.47c-.25-.32.51-1.16.94-1.4,3.68-2.06,19.95-4.06,23.83-2.14,4.61,2.28,10.13,14.6,12.01,19.59Z"/>
      <path class="cls-1" d="M197.19,120.31c-1.17,1.53-1.71-.02-1.88-1.39-.66-5.16-.27-14.39-.04-19.86.44-10.3,2.04-20.81,2.86-31.1.29-3.67-1.44-9.64,1.89-11.78l-2.82,64.14Z"/>
      <path class="cls-1" d="M23.66,57.12l2.82,59.42c-1.25.25-1.47-1.71-1.64-2.58-2.01-10.7-2.77-27.29-3.11-38.41-.15-4.87-.55-12.47.04-17.03.18-1.38.71-2.92,1.88-1.39Z"/>
      <path class="cls-1" d="M76.46,126.92c-5.75-5.83,7.56-13.18,10.87-17.91l6.58-8.49c1.22.86,1.59,1.72,1.45,3.23-.5,5.35-17.28,16.46-18.89,23.18Z"/>
      <path class="cls-1" d="M62.33,127.88c2.07,2.28-6.24,3.28-7.35,3.48-1.45.27-10.63,2.11-10.55-.2,2.12-2.37,16.51-4.82,17.9-3.29Z"/>
      <path class="cls-1" d="M102.88,156.17c.1,8.13-10.29,21.55-7.04,29.22.82,1.95,26.58,18.56,28.27,18.55,3.4.38,10.83-12.71,12.73-10.97l-9.07,13.95c-1.42.53-2.82,1.16-4.4.95-2.41-.32-26.15-16.15-28.54-18.65-5.63-5.88-2.66-9.14-1.39-16.07-4.95,2.31-13.08,3.23-17.9.47,7.76-2.07,15.82-.79,21.15-8.08.73-1,4.58-11.27,6.19-9.37Z"/>
      <path class="cls-1" d="M148.96,177.72l-3.63.14c3.88-9.46,5.04-15.2-6.17-18.83-1.42-4.91,5.93-.95,7.98.51,6.92,4.9,4.3,11.53,1.82,18.19Z"/>
    </g>
  </g>
</svg>