<?xml version="1.0" encoding="UTF-8"?>
<svg id="Ebene_2" data-name="Ebene 2" xmlns="http://www.w3.org/2000/svg" viewBox="0 0 1325.05 2020.01">
  <defs>
    <style>
      .cls-1 {
        fill: #c3dde4;
        stroke: #86afcd;
        stroke-miterlimit: 10;
        stroke-width: 9px;
      }
    </style>
  </defs>
  <g id="Ebene_1-2" data-name="Ebene 1">
    <path class="cls-1" d="M1205.82,1491.32c82.75-250.96,169.86-447.36,70.08-749.97-88.23-267.59-75.37-168.23-47.11-433.79,3.59-33.68-29.75-63.88-73.97-63.88-63.61,0-115.36-41.16-115.36-91.75,0-193.08-750.16-200.05-750.16,0,0,50.59-51.76,91.75-115.37,91.75-43.24,0-77.52,29.2-73.97,63.88,28.57,278.61,38.7,173.58-55.58,459.49-92.51,280.51-6.34,466.8,78.55,724.27-17.85,171.86-57.22,285.13,50.99,285.13,63.61,0,115.37,41.16,115.37,91.75,0,199.39,750.16,193.41,750.16,0,0-50.59,51.75-91.75,115.36-91.75,112.56,0,67.13-129.76,51-285.13Z"/>
  </g>
</svg>