<?xml version="1.0" encoding="UTF-8"?>
<svg id="Ebene_2" data-name="Ebene 2" xmlns="http://www.w3.org/2000/svg" viewBox="0 0 333.88 202.3">
  <defs>
    <style>
      .cls-1 {
        fill: #f7f6ec;
      }

      .cls-2 {
        fill: #86afcd;
      }
    </style>
  </defs>
  <g id="Ebene_1-2" data-name="Ebene 1">
    <path class="cls-2" d="M333.54,133.07c-3.15-20.32-22.84-42.81-40.06-52.8-11.67-6.78-24.1-12.33-36.12-17.7-4.7-2.1-9.49-4.24-14.22-6.45,2.51-2.65,5.01-6.01,7.59-11.45,2.71-5.7,10.97-23.04,1.36-35.05-9.5-11.88-28.53-9.51-47.68-5.18-14.28,3.23-23.49,8.98-33.87,15.67-.98-.51-1.98-1.03-2.99-1.55C148.67,8.72,127.27-2.42,103.3.46c-11.92,1.44-17.45,7.14-19.98,11.67-5.77,10.3-1.49,22.55,2.88,32.06,4.14,9.01,10.02,16.89,17.82,23.82-2.06-.07-4.24-.15-6.49-.24-21.69-.86-48.69-1.92-66.26,8.9C21.98,82.4-3.65,105.4.44,124.93c1.14,5.43,5.54,14.9,22.24,17.25h0c5.04.71,10.34.57,15.54.32-3.69,4.16-7.44,10.36-5.41,19.13.9,3.88,3.52,9.45,15.89,18.08,5.91,4.12,13.08,8.2,17.42,9.9,12.13,4.77,23.11,5.07,33.72,5.37,3.46.1,7.04.19,10.6.45,9.91.72,20.1,1.6,29.95,2.45,23.01,1.98,46.8,4.04,70.12,4.4.88.01,1.74.02,2.61.02,34.86,0,58.37-11.17,69.88-33.21,1.71-3.27,3.61-7.5,4.19-12.07,2.12.63,4.25,1.2,6.38,1.67,5.25,1.17,23.21,4.22,33.78-5.68,5.23-4.9,7.43-11.98,6.2-19.94Z"/>
    <g>
      <path class="cls-1" d="M24.14,131.79c-31.62-4.46-.1-38.32,12.64-46.17,17.66-10.88,50.52-7.39,70.94-7l15.35-9.6c-11.85-7.24-21.45-16.4-27.33-29.2-5.73-12.47-9.43-26.73,8.82-28.93,24.01-2.89,46.07,11.02,66.58,21.32,12.26-7.81,20.99-14.22,35.59-17.53,24.39-5.52,50.39-7.87,34.52,25.48-4.33,9.11-7.69,10.15-14.05,16.48-.94.93-1.61,1.01-1.2,2.74,20.24,10.59,42.46,18.5,62.21,29.97,14.36,8.33,32.34,28.48,34.96,45.33,2.44,15.76-16.17,16.24-27.31,13.76-20.7-4.61-42.32-18.94-62.6-25.69-3.84-.27-12.67,7.32-17.4,8.51-1.57.4-9.56,1.66-10.78,1.66h-50.32l17.54,2.25c27.36,4.45,64.69-.11,90.51,7.88,12.92,4,17.89,7.78,10.9,21.18-12.14,23.25-39.46,27.92-63.01,27.55-32.94-.51-66.59-4.43-99.48-6.82-14.48-1.05-27.12.43-41.24-5.12-6.32-2.49-25.39-13.98-26.92-20.58-2.79-12.04,15.34-13.44,12.2-27.47-9.68-.97-21.74,1.32-31.1,0ZM141.18,31.11c-12.41-2.76-51.94-29.2-40.44,2.57,6.39,17.66,19.94,16.32,33.29,26.67l32.02-23.01c-13.39-5.72-27.09-15.42-41.54-18.38-1.2-.25-5.98-1.34-5.94.84,7.49,2.56,16.99,5.97,22.61,11.31ZM232.48,41c1.71-3.69,8.13-16.95,6.58-20.04-3.34-3.66-11.92-2.57-16.7-1.96-13.73,1.75-29.06,16.4-41.05,23.42l-1.67-.55,23.74-18.11c-.68-1.42-3.15-.12-4.28.24-11.92,3.74-37.66,24.96-49.22,33.34-18.1,13.12-35.46,27.3-53.92,39.95l4.19-.34,44.43-30.77-37.31,29.97c1.59.41,4.46,2.13,5.59,2.27,5.22.66,25.61-19.83,32.85-20.93l-28.89,22.63,1.18,6.76,53.72-35.04-53.94,38.78c-.82,2.12-1.36,4.49-1.77,6.73-.27,1.48-2.14,2.21.84,1.97,12.38-8.14,24.74-18.52,37.56-25.78.99-.56,2.86-2.47,3.72-.8l-45.7,33.47-1.78,4.43c39.78-25.33,78.14-53.02,115.33-82.01-1.04-1.81-2.54.42-3.5,1.02-4.33,2.71-17.3,11.97-20.83,13.11-.57.18-1.85.31-1.67-.54l32.48-21.23ZM132.13,60.54l-21.47-10.19c-.42,2.06.99,2.82,2.32,3.89,1.24,1,13.77,9.03,14.6,9.26,2.3.63,3.67-.92,4.55-2.96ZM274.62,89.95l-55.92-26.02-36.8,27.12,96.67,44.14c1-.99-2.14-3.41-2.8-3.98-8.2-6.99-21.78-10.09-30.54-16.96,2.6-1.07,6.52,1.27,9,2.31,5.37,2.24,12.45,6.78,17.59,8.43.74.24,1.92.22,1.67-.54l-3.69-7.06-35.88-17.29,1.58-2.15,32.33,14.6c.32-.33-1.2-8.22-1.7-9.03-1.57-2.53-7.3-1.77-8.46-4.52l8.91,1,2.4-5.51-26.01-14.72c9.23.31,20.34,10.03,28.25,11.95,2,.48,2.73.34,3.41-1.77ZM100.47,85.41h-32.79c2.11,7.55,2.39,4.51,7.28,4.46,6.03-.06,12.08.26,18.11.02l7.4-4.48ZM22.44,109.17l-6.58,10.58c12.04,13.21,32.84-.03,41.62-11.17,20.47-25.99-11.56-26.18-24.85-11.28,3.56.2,6.41-3.34,9.86-4.84,18.79-8.19,25.2,1.18,12.2,16.73-7.73,9.24-23.4,18.01-35.16,12.46l2.91-12.48ZM91.42,92.21l-19.58,1.08-1.9,4.56c4.92,1.38,8.91,1.11,13.8-.33l7.68-5.31ZM56.37,94.47c-13.23-.22-28.27,11.1-31.65,23.74,13.62.1,29.03-9.71,31.65-23.74ZM153.62,111.43h19.22c.18,1.69-2.92,2.01-4.06,2.16-8.73,1.12-19.7-.59-26.47,5.2,6.39,1.33,13.39.93,19.81,1.68,2.09.25,1.81-.33,1.67,2.27h-20.92c-.34,0-5.57.92-6.79,1.12-1.68.28-3.49.05-3.95,2.26h81.41s-8.61-2.12-8.61-2.12c-2.54-.33-5.1.05-7.65-.27-1.37-.17-6.18-.49-6.35-2.12,6.41-1.33,28.48.43,32.81-1.69.47-.23,1.39-1.34,1.11-1.7l-31.67-4.54c-1.89-1.42.16-2.06,1.69-2.27,5.13-.68,10.12,1.91,15.27,1.13l-11.27-6.24c-7.56-1.23-14.61.27-22.16-1.64-1.9-.48-3.29,1.14-2.75-2.29h16.96l-15.28-7.59c-1.56,2.24-8.1,4.9-8.97,6.43-.51.89.97,3.09-.54,4.03-2.37,1.47-10.54,1.1-12.52,6.19ZM313.07,129.52c-3.74-16.47-21.51-37.65-40.22-31.74-3.34,15.55,12.84,42.42,28.61,45.04,3.16.53,15.23.38,15.72-3.64.03-3.95-2.57-6.79-4.11-9.66.69,3.04,1.25,6.28,1.19,9.43-15.34,7.43-31.84-11.03-36.8-24.15-8.24-21.83,7.01-17.72,19.17-7.87,7.69,6.23,11.85,14.06,16.43,22.59ZM75.6,102.39c-6.09-.76-8.78-.06-11.31,5.63,5.75.57,9.36.33,11.31-5.63ZM59.9,146.35c22.01,6.83,41.76-7.46,49.47-27.72,6.67-17.53-2.53-17.01-17.04-13.65-20.05,4.64-30.21,22.03-32.43,41.37ZM309.67,136.31c-3.21-13.71-14.61-29.51-29.39-31.65,2.88,15.75,12.49,29.78,29.39,31.65ZM67.68,111.44c-4.51-.21-9.21,1.39-11.31,5.63,6.75.93,8.11-.05,11.31-5.63ZM60.89,120.49c-5.39-.6-10.19-.11-13.56,4.5,5.49-.41,11.79,2.32,13.56-4.5ZM195.46,149.88h24.31c.37,0,1.33,1.15,3.1.95s8.98-3.4,9.91-5.47l-119.13-7.6-4.71,3.06,1.3,2.12c11.31.82,23.6.98,34.77,2.54,1.81.25,7.38.3,6.35,3.25l-49.22-3.45c-3.94.47-6.63,3.95-10.38,5.48-10.94,4.46-27.56,5.63-38.24.26-12.45,5.94,5.33,15.03,11.59,17.82l67.02,5.92-58.79-.03c13.86,3.18,28.25,2.42,42.39,3.42,31.06,2.19,62.73,6.39,93.84,6.83,1.26.02,3.16.62,2.85-1.17-14.85-5.46-31.78-3.18-47.48-5.68l1.67-2.26,39.03,2.26c-2.48-5.31,1.21-8.63,2.26-13.56-.42-.38-14.53,1.06-10.17-2.26,9.42.68,15.17.77,20.35-7.91-6.06-1.69-12.49-1.09-18.64-2.29-1.65-.32-3.51.02-3.97-2.25ZM269.81,152.44c-4.35-4.25-19.2-4.25-25.04-3.56-18.21,2.15-52.68,29.94-17.92,34.65,12.23,1.66,22.31-3.2,31.34-11.05,3.35-2.92,15.67-16.08,11.62-20.03Z"/>
      <path class="cls-1" d="M235.04,109.15c-10.06-3.83-21.26-8.68-30.56-14.14-.63-.37-4.34-1.06-2.23-2.81,1.43-1.19,30.61,12.75,32.79,16.95Z"/>
      <path class="cls-1" d="M96.81,106.07c22.03-3.13,5.03,25.22-4.32,31.86-4.89,3.47-25.89,12.23-29.99,6.33.22-17.25,17.54-35.81,34.31-38.19ZM102.73,110.3c-17.1.81-31.4,14.11-35.05,30.52,18.53.33,32.53-12.39,35.05-30.52Z"/>
      <path class="cls-1" d="M248.36,150.2c6.33-.62,22.34.48,18.43,9.38-5.61,12.78-28.22,23.83-41.99,21.46-26.53-4.57,9.03-29.43,23.56-30.84ZM261.05,156.68c-16.65-4.86-30.25,4.51-40.69,16.39,13.58,8.76,35.31-2.46,40.69-16.39Z"/>
    </g>
  </g>
</svg>