<?xml version="1.0" encoding="UTF-8"?>
<svg id="Ebene_2" data-name="Ebene 2" xmlns="http://www.w3.org/2000/svg" viewBox="0 0 222.74 301.2">
  <defs>
    <style>
      .cls-1 {
        fill: #f7f6ec;
      }

      .cls-2 {
        fill: #86afcd;
      }
    </style>
  </defs>
  <g id="Ebene_1-2" data-name="Ebene 1">
    <path class="cls-2" d="M218.63,86.82c-2.01-2.98-5.94-7.14-10.48-11.96-2.59-2.74-6.23-6.61-8.09-8.87.19-1,.33-2.24.19-3.68-.11-1.1-.37-2.06-.68-2.88.46-1.32.84-3.03.76-5.09-.08-2.24-.74-4.1-1.45-5.52.82-2.01,1.74-4.51,2.02-7.17,3.11-29.13-18.89-33.71-33.44-36.74C126.55-3.6,85.09.53,57.51,5.49l-.32.06c-16.81,3.02-39.83,7.17-36.15,36.91.28,2.25,1.06,4.54,1.82,6.75.19.57.45,1.3.64,1.92-.5,1.2-1.1,2.92-1.1,5.05,0,1.69.38,3.13.79,4.26-.45,1.09-.84,2.49-.85,4.15,0,1.05.15,2,.38,2.84-2.16,2.56-5.13,5.96-6.26,7.22-.56.62-1.89,1.9-3.19,3.14C4.29,86.41.05,91.1,0,96.73c-.04,4.53,2.24,8.44,6.27,10.73,1.97,1.12,4.28,1.77,6.68,2.05-3.59,24.62-2.36,51.41-1.17,77.35.9,19.57,1.83,39.8.55,58.13l-.05.66.06.66c.95,11.12,5.05,31.24,21.79,41.1,14.61,8.6,43.22,13.76,76.53,13.79h.38c32.79,0,61.28-4.85,76.27-13,24.01-13.05,23.42-42.52,22.99-64.03-.05-2.42-.1-4.76-.1-6.98-.04-11.01.18-22.27.4-33.16.4-19.94.81-40.55-.37-60.89-.09-1.61-.15-3.18-.2-4.73-.09-2.63-.19-5.29-.45-8.03,4.09-.27,8.1-1.64,10.77-5.17,2.58-3.41,4.37-9.37-1.72-18.39Z"/>
    <g>
      <path class="cls-1" d="M212.6,91.44c-1.64-2.42-5.52-6.54-9.64-10.91-4.93-5.23-10.03-10.63-10.59-12.52-.28-.94-.06-1.76.18-2.64.19-.71.39-1.44.31-2.25-.07-.7-.41-1.32-.75-1.92-.35-.63-.68-1.22-.63-1.8.04-.43.26-.86.52-1.36.43-.83.97-1.86.91-3.39-.06-1.49-.84-2.66-1.46-3.6-.43-.64-.8-1.2-.76-1.62.05-.55.47-1.57.96-2.74.74-1.77,1.66-3.97,1.87-5.92,2.15-20.19-9.26-24.11-26.92-27.79-39.61-8.25-79.95-4.22-106.81.62l-.32.06c-17.25,3.1-32.14,5.78-29.42,27.78.17,1.4.82,3.28,1.44,5.09.66,1.92,1.34,3.91,1.34,5.04,0,.74-.32,1.45-.65,2.2-.34.77-.69,1.56-.69,2.4,0,.85.37,1.67.73,2.46.34.76.67,1.47.65,2.16-.01.63-.34,1.2-.69,1.79-.36.63-.74,1.27-.74,2.03,0,.75.39,1.41.76,2.05.45.76.87,1.48.65,2.32-.25.71-7.6,9.18-9.42,11.19-.75.83-2.07,2.1-3.59,3.56-4.52,4.35-10.72,10.3-10.75,13.08-.01,1.51.69,2.68,2.11,3.49,3.37,1.92,10.17,1.17,13.21-.33-.25,1.29-.62,2.58-.98,3.83-.43,1.49-.86,3.03-1.11,4.59-3.91,24.44-2.66,51.72-1.45,78.1.91,19.8,1.85,40.28.54,59.12.82,9.53,4.21,26.71,17.76,34.69,13.4,7.89,40.45,12.62,72.35,12.65h.36c31.01,0,58.71-4.59,72.35-12,19.6-10.65,19.09-36.14,18.68-56.62-.05-2.5-.1-4.86-.11-7.12-.04-11.11.18-22.41.4-33.35.4-19.78.8-40.23-.36-60.25-.1-1.67-.16-3.32-.21-4.92-.22-6.09-.42-11.86-2.69-18.05,5.85,1.84,12.53,2.4,14.67-.42,1.39-1.84.72-4.8-1.98-8.8ZM25.69,194.83c-.85-26.29-1.73-53.47.01-78.86.21-3.06,2.3-15.45,3.75-17.35.37-.49,1.08-.8,2.04-.91.25-.03.52-.04.78-.04,1.96,0,4.19.71,5.09,1.47.94.79,1.92,2.89,2.95,5.11.94,2.03,1.92,4.12,2.96,5.39,5.9,7.19,17.36,6.61,25.51,3.03,2.02-.89,3.52-1.91,4.97-2.9,2.81-1.92,5.23-3.59,10.38-3.15,3.76.31,7.05,2.53,10.23,4.67,2.13,1.44,4.33,2.92,6.67,3.82.1,5.53-2.04,10.52-4.1,15.35-1.33,3.1-2.7,6.31-3.47,9.63l-.06.25.25.05c1.39.31,1.84-.45,2.29-1.18.13-.22.27-.44.43-.65,1.88-2.35,3.17-5.03,4.42-7.63.2-.42.4-.84.61-1.26.18-.38.2-.75.21-1.04,0-.27.02-.44.11-.51.09-.07.33-.13.97-.02.09.61.2,1.19.31,1.77.28,1.5.54,2.92.49,4.53-.04,1.14-.4,2.39-.76,3.59-.72,2.46-1.46,5,.39,6.92l.08.08h.11c2.46-.09,8.02-23.62,8.35-27.47,6.52.96,11.29-2.28,15.91-5.41,3.79-2.57,7.37-5.01,11.87-5.34,1.44,5.59,3.18,11.53,6.06,17.14.06.12,6.18,11.56,9.41,12.12.42.07.78-.03,1.07-.3l.1-.09-.02-.13c-.35-2.07-1.24-3.76-2.1-5.4-1.27-2.42-2.47-4.72-1.8-7.96,1.45.88,2.42,2.19,3.44,3.58.92,1.24,1.88,2.53,3.2,3.46.9.63,2.51,1.62,3.2,1.13.47-.33.25-1.08.18-1.33-.31-1.05-2.12-3.81-4.42-7.29-3.32-5.03-8.81-13.36-7.98-14.96,1.85.71,3.77,1.62,5.81,2.58,6.77,3.2,14.44,6.82,21.47,3.53,3.51-1.65,5.06-5.17,6.44-8.28,1.02-2.31,1.98-4.5,3.59-5.5,1.61-1,5.99-1.47,7.3-.14.94.95,2.96,9.69,3.26,11.86.49,3.51.81,9.58.89,11.35,1.71,36.04,1.71,81.5,0,115.81-1.67,33.29-12.1,40.85-42.6,46.66-31.92,6.08-68.16,5.28-96.96-2.13-19.03-4.9-29.26-11.26-32.36-32.37.3-17.95-.31-36.9-.9-55.24ZM52.07,67.5l-5.51,2.54-.39-.14c-1.96-.7-4.36-1.55-5.6-3.08l11.51.68ZM183.64,60.07c.29-1.18,2.94-5.71,4.44-6.42.12-.06.22-.08.29-.08s.12.02.15.04c.29,3.34-1.31,5.45-4.87,6.46ZM35.67,55.27c2.81-.19,3.99,1.83,5.25,3.96.45.76.91,1.54,1.46,2.23-3.27-.92-7.18-2.31-6.7-6.19ZM176.02,69.93c.32-3.14,2.27-5.09,5.41-5.41-1.25,2.3-3.11,4.16-5.41,5.41ZM183.13,56.83c-.15,2.64-2.48,3.67-4.73,4.66l-.18.08c-.23-1.48-.06-2.56.51-3.28.7-.88,2.02-1.32,4.39-1.46ZM149.42,78.98c0,.19-.07.26-.1.29-.34.33-1.46.13-2,.03l-.23-.04c-2.93-.49-6.43-1.98-7.06-4.63l9.39,4.35ZM139.29,76.86c-6.08-2.03-7.16-3.15-7.26-3.64-.02-.08-.02-.18.1-.31,3.69-.12,6.09,1.21,7.15,3.94ZM138.71,52.14c.66-.53,1.08-.73,1.33-.78l-6.39,8.52c-.29-1.78,2.74-5.88,5.06-7.74ZM166.24,73.02c-.24,2.24-1.05,3.72-2.4,4.39-1.58.78-3.87.4-6.37-1.04,2.25-.09,3.86-.95,5.54-1.86,1-.54,2.03-1.09,3.23-1.49ZM140.78,68.67c.98-3.01,3.96-3.55,6.84-4.08l.16-.03c-.53,1.09-2.94,2.68-5.07,3.58-1.09.46-1.68.52-1.93.53ZM147.74,67.07c1.18-2.3,3.47-2.69,5.9-3.1.36-.06.72-.12,1.08-.19-.68,3.41-5.12,3.44-6.98,3.29ZM163.04,69.08c-1.5,2.46-3.99,3.67-6.91,3.37,1.02-3.01,4-3.43,6.91-3.37ZM156.09,66.31c.56-3.05,4.25-4.12,6.92-4.13-1.44,2.14-3.74,4.41-6.92,4.13ZM155.39,69.92c-1.85,4.03-6.19,3.16-10.39,2.32-.68-.14-1.34-.27-1.98-.38l12.37-1.94ZM153.59,46.07c-1.12.46-1.94.79-2.91,1.31l.36-.67c1.89-3.51,5.09-5.28,9.54-5.28.37,0,.75.01,1.13.04,0,1.28-2.57,2.3-4.14,2.92-.32.13-.6.24-.82.34-1.34.6-2.34,1.01-3.15,1.34ZM150.45,47.5c-.79.44-1.7,1-2.95,1.85-.8.54-1.62,1.07-2.43,1.59-1.63,1.05-3.31,2.13-4.87,3.37,1.79-5.34,5.45-7.99,10.69-10.37l-.44,3.56ZM162.65,49.26c2.86.91,4.58,3.54,5.11,7.84-3.29.59-6.62,1.38-9.84,2.14-6.99,1.65-14.21,3.34-21.49,3.22,5.56-6.03,18.94-15.5,26.23-13.2ZM167.12,74.76c.22-1.23.44-2.5.8-3.53.99-2.83,2.82-7.82,3.81-9.96.25-.54.39-.63.38-.64.09.06.23.42.32.64.18.46.34.89.68.98.11.03.28.03.47-.12l.13-.1-.17-.68c-1.06-4.39-2.16-8.93-4.95-12.58,1.4.08,2.68.71,3.72,1.82,1.76,1.87,2.72,4.96,2.44,7.87-.15,1.63-1.67,8.62-2.15,10.09-.66,2.04-3.56,5.56-5.69,7.33.07-.37.14-.75.2-1.13ZM160.35,44.27c2.98-1.24,5.58-1.44,7.55-.59,1.59.68,2.79,2.05,3.58,4.06l-11.13-3.47ZM133.06,69.19l.03-2.38,6.81-.72c-1.04,1.16-2.74,1.7-4.39,2.22-.87.28-1.71.54-2.45.89ZM159.39,78.98c0,.18-.06.25-.09.27-.24.26-1.02.18-1.59.12-.26-.03-.51-.05-.72-.05h-.42c-2.92.07-5.69.13-7.28-2.62,3.85-.55,6.26.54,9.55,2.03l.54.25ZM144.22,108.1c2.15.92,6.89,9.31,6.79,13.85-.03,1.27-.43,2.11-1.19,2.51l-5.98-16.42c.08-.02.2-.02.39.06ZM143.13,100.51c1.8,1.83,3.15,6.01,3.25,7.09-3.78-1.4-4.69-5.43-4.88-7.89.51-.05,1.06.21,1.63.8ZM119.39,62.94c.14-.11.35-.15.58-.15.36,0,.78.12,1.06.3,1.16.74,2.61,5.91,2.42,8.21-1.42-1.94-3.72-5.95-4.18-7.54-.12-.39-.07-.67.13-.82ZM124.66,63.08c.06-.08.15-.13.26-.15.6-.13,1.7.58,2.1.96,1.63,1.58,2.37,5.21,2.46,7.8l-4.81-8.62ZM122.13,87.32c.17,3.22.35,6.55,2.84,8.54l.46.37-1.55-16.4c.25,0,.51-.02.77-.04.65-.05,1.25-.09,1.73.17.47.36,5.16,6.96,5.85,8.14,1.23,2.12,5.87,12.9,5.78,14.21h-.05c-4.88,0-8.59,2.78-12.18,5.46-3.89,2.91-7.91,5.92-13.41,5.3.93-10.45,3.7-21.3,8.25-32.28,1.24,1.57,1.37,3.98,1.51,6.52ZM141.75,97.56c-2.1-1.99-4.42-6.34-4.82-7.63,3.39,1.52,5.78,4.74,6.31,8.55-.41-.06-.91-.38-1.49-.92ZM133.16,82.82s.05,0,.07,0c1.51,0,4.13,2.61,5.5,4.71.59.9.76,1.4.79,1.65-2.77-1.3-5.06-3.59-6.37-6.36ZM111.62,87.71c.15-1.13,2-4.8,2.58-4.89.64,1.9.03,3.8-.62,5.8-.45,1.4-.92,2.84-.96,4.34-1.17-.81-1.19-3.8-1-5.25ZM88.26,86.38c.28-.09.54-.18.74-.26,2.23-.88,4.72-1.68,7.24-2.33-2.44,3.84-5.9,4.41-10.63,3.98.38-.64,1.72-1.08,2.64-1.39ZM70.93,72.14c-2.03-3.28-2.71-5.98-2.1-8.23.57-2.08,2.26-3.86,5.16-5.44.18.96-.32,1.83-.88,2.81-.46.79-.93,1.62-1.07,2.58-1.15,7.42.38,12.69,4.96,17.02-1.73.03-3.32-.62-4.67-1.87-1.79-1.67-2.89-4.25-2.91-6.79l1.82.46-.32-.52ZM114.77,66.07c-2.65-1.65-6.14-4.8-6.29-6.67,1.01.91,2.13,1.69,3.23,2.45,2.18,1.51,4.24,2.93,5.41,5.29-.33-.03-1.08-.28-2.35-1.07ZM101.02,77.52l-5.99,2.81c-5.83,1.53-12.36,2.69-16.18-2.81h22.17ZM83.2,68.47l-7.23-1.32-.37-1.94c3.02-.41,5.81.8,7.6,3.26ZM105.64,63.92c-.23.24-.94.17-1.51.11-.27-.03-.52-.05-.74-.05-.03,0-.07,0-.1,0-6.44.26-13.08-.73-19.49-1.69-2.13-.32-4.33-.65-6.48-.92,6.29-7.85,15.53-3.58,23.69.19,1.66.77,3.22,1.49,4.72,2.09,0,.18-.07.25-.09.28ZM114.47,69.58c-.46.86-5.31.71-6.5.5-1.2-.21-3.53-1.36-4.52-2.45l10.83,1.45c.14.16.27.36.19.5ZM93.17,69.21c-.95-.2-1.96-.28-2.95-.37-2.76-.23-5.37-.45-6.82-2.82,3.82.02,7.84.48,9.76,3.18ZM97.95,69.41c-1.16-.37-3.56-1.49-4.52-2.62,3.68.02,7.93.48,9.82,3.35-1.68.13-3.29-.1-5.3-.74ZM86.02,74.66l2.05-1.73h6.91s-.3.35-.3.35c-1.52,1.78-3.83,1.63-6.27,1.46-.67-.04-1.36-.09-2.02-.09-.12,0-.25,0-.37,0ZM107.59,72.92c-1.8,1.29-4.79,1.35-7.68,1.42-1.63.04-3.18.07-4.48.32l-.41-1.74h12.58ZM78.32,73.17c2.15-.98,5.88-1.27,6.68-1.11-.12.91-.42,1.53-.9,1.9-.88.67-2.31.42-3.83.16-.82-.14-1.65-.28-2.44-.28-.19,0-.37,0-.55.03.2-.24.55-.48,1.03-.7ZM101.09,56.39c-1.45-1.56-1.81-2.3-1.85-2.58,4.01,1.27,6.94,3.95,8.7,7.96-.84-.09-4.1-2.44-6.85-5.38ZM88.77,53.19c-.3.31-1.28.18-1.86.1-.17-.02-.32-.04-.45-.05-1.34-.11-2.73-.32-4.08-.52-1.6-.24-3.26-.48-4.88-.59,4.32-3.45,7.23-2.02,11.37.75,0,.2-.07.28-.1.31ZM97.17,85.26c1.71-1.77,3.48-3.61,5.83-4.36.54-.17,1.14-.09,1.68,0l-.03.03c-.39.38-.78.79-1.18,1.21-1.97,2.07-4.19,4.41-6.98,3.82.22-.23.45-.46.67-.69ZM106.13,80.92c.4-.18.82-.79,1.31-1.5.54-.78,1.28-1.87,1.76-1.78.15.02.46.22.75,1.22l.16.55c-2.01,1.48-3.86,2.64-4.67,2.87l-.39-1.33c.43.07.8.1,1.09-.04ZM110.42,78.87c1.38-4.24,2.9-4.95,6.91-6.65,0,.1-.03.22-.07.31-.58,1.52-3.93,4.47-6.97,6.74l.13-.41ZM88.13,50.03c4.8.93,9.27,2.47,10.55,6.81-.8-.42-1.64-.82-2.45-1.21-3.01-1.44-6.11-2.93-8.1-5.6ZM71.87,57.64c1.03-3.28,3.64-4.03,6.75-4.03.6,0,1.22.03,1.85.07l-8.6,3.96ZM86.33,85.16c-1.17,1.45-2.67,1.78-3.75,1.79-1.9,0-3.9-.94-5.19-2.48l8.95.69ZM109.36,92.22c0-.08,0-.18-.02-.18h0c.09-.04.57,0,1.04.03.58,1.81.79,3.41.73,5.48-.04,1.3-.45,3.55-1.12,3.94-1.03-3.15-1.22-5.61-.67-8.44.07-.36.06-.63.06-.83ZM108.18,99.92c1.87,4.09,1.63,7.61.66,11.57-.21-.09-.6-.31-1.11-.64-.11-.63-.27-1.3-.43-2-.71-3.1-1.51-6.6.87-8.94ZM107.28,111.15c.12.61.36,1.16.59,1.7.3.71.59,1.37.57,2.01l-1.74,6.85c-1.77-4.48-1.84-7.87-1.27-12.64.37.2.57.52.82.9.25.39.53.83,1.04,1.19ZM105.54,127.34c-.22.96-.45,1.95-.54,2.96l-1.76-5.21.65-5.21c2.87,2.16,2.31,4.62,1.66,7.46ZM51.84,63.89c-4.84-.83-8.2-2.24-9.87-6.25,4.95.67,7.61,2.36,9.87,6.25ZM54.32,60.82c3.32.67,6.76,1.36,6.93,4.69-2.31-.09-8.52-.77-10.08-5.46.92.32,2.01.54,3.15.77ZM58.36,69.75c2.22.39,4.52.79,6.77.2l.66,3.16c-.96-.17-2.11-.24-3.22-.31-1.35-.08-2.62-.16-3.53-.4-.23-.06-.32-.42-.4-.74-.08-.32-.17-.69-.51-.69h-.03c-.77.05-1.52.14-2.24.23-1.98.24-3.86.47-6.14-.18,2.53-2.34,5.5-1.82,8.64-1.26ZM35.22,63.48c.72-.4,2.58.29,4.21.9.69.25,1.33.49,1.9.67l-3.04.5-.31,1.92-3.02-3.67c.05-.14.13-.25.26-.32ZM186.62,48.79c-1.33,2.6-2.83,3.7-5.13,3.7h-.1l2.6-13.04-6.64,13.31c-1.81-7.39-5.63-12.27-11.08-14.13-7.39-2.52-17.63.6-26.74,8.15-1.2,1-3.2,3.17-5.31,5.47-2.7,2.94-5.76,6.28-6.92,6.8-.71.32-2.16.26-3.7.2-2.7-.1-5.74-.22-7.31,1.31-7.08-5.64-19.7-14.17-31.22-14.17-1.55,0-3.08.15-4.57.49-6.05,1.37-10.86,5.58-14.27,12.53-8.36-.89-9.26-1.02-12.72-8.18-.14-.28-.14-.57-.15-.84,0-.33-.02-.67-.29-.89-.27-.22-.74-.25-1.55-.09l-.28.05,2.37,7.53s0,.08,0,.09c-.1.09-.49.08-.8-.02-4.29-1.32-8.27-13.06-9.43-18.21l-.04-.19h-.19c-.23-.02-.42-.04-.59-.05-.48-.04-.77-.06-.98.13-.24.22-.25.6-.24,1.32,0,4.4,2.31,8.91,4.34,12.9.31.61.62,1.21.91,1.79h-.04c-5.16,0-8.01-3.69-9.5-6.83-3.38-7.12-2.76-18.15,1.27-22.71,3.05-3.45,16.13-6.25,21.61-7.3,29.93-5.71,63.26-6.58,93.86-2.44,9.53,1.29,26.89,4.69,31.51,9.29,5.42,5.4,4.41,18.01,1.37,23.99ZM52.02,75.17c-.36.63-2.35,2.54-4.12,4.24-5.2,4.98-7.25,7.2-6.5,8l.12.13.16-.08c3.3-1.52,6.06-3.97,8.73-6.34.93-.83,1.89-1.68,2.86-2.48.5-.41.81-.96,1.12-1.49.65-1.14,1.09-1.9,2.95-.93l-3.03,7.22.11.12c.31.32.62.35.83.31,1.1-.2,2.13-2.45,3.28-5.15.31-.73.66-1.55.77-1.67.97-.66,5.51-.53,6.69.04.61.29,1.66,2.12,2.58,3.73.72,1.25,1.39,2.42,1.95,3.09,1.01,1.21,2.16,2.11,3.27,2.99,1.19.94,2.32,1.82,3.26,3.04l-3.74,11.68.59-.38c2.43-1.57,3.57-4.4,4.67-7.13.46-1.14.9-2.23,1.42-3.21,11.13,2.87,20.62-1.51,29.22-6.86-3.86,8.68-6.32,17.62-7.31,26.59-2.1-.93-4.15-2.31-6.31-3.77-3.84-2.59-7.81-5.27-12.24-5.38-4.85-.12-8.62,2.11-12.62,4.48-4.67,2.76-9.5,5.62-16.42,4.72-6.31-.83-8.33-4.96-10.28-8.96-1.62-3.32-3.15-6.46-6.98-7.47-1.22-.32-2.41-.46-3.59-.46-2.96,0-5.78.85-8.54,1.68-3.35,1.01-6.81,2.04-10.47,1.54l21.86-25.26,15.69,3.41ZM187.11,94.22c-4.66,1.09-6.06,4.42-7.41,7.64-.88,2.1-1.72,4.08-3.4,5.46-5.62,4.62-14.31.06-21.3-3.61-2.44-1.28-4.75-2.49-6.71-3.22-2.02-7.17-5.83-13.54-9.55-19.7,12.87,4.39,23.18,3.61,31.5-2.38,2.67,6.48,6.55,12.26,10.68,15.9l.38.34.03-.51c.14-2.16-2.86-7.01-5.51-11.3-1.77-2.86-3.6-5.82-3.51-6.56.09-.78.61-1.55,1.46-2.17,1.13-.82,2.63-1.24,3.73-1.02.81.16,1.81,1.56,2.78,2.92,1.19,1.67,2.42,3.4,3.8,3.79l.6.17-3.97-6.78,7.41-2.42,22.43,26.3c-4.1,1.25-7.83,0-11.78-1.31-3.7-1.23-7.52-2.51-11.66-1.53Z"/>
      <path class="cls-1" d="M55.67,277.63c11.23,3.64,23.42,5.02,34.94,6.13l.23.02.04-.23c.15-.9.11-1.36-.13-1.61-.23-.25-.58-.22-.94-.19-.29.03-.62.06-.97-.03-3.79-.93-7.91-1.5-11.9-2.05-3.9-.54-7.93-1.1-11.69-1.99-5.02-1.19-20.28-4.82-20.59-9.72-.15-2.33,3.1-4.76,9.65-7.23,13.44-5.07,35.05-7.12,41.35-7.63,5.16-.42,10.59-.48,15.84-.55,3.38-.04,6.87-.09,10.22-.22.21,0,.48.02.77.05.75.08,1.52.16,1.92-.26.19-.2.27-.48.22-.83l-.03-.2-.2-.02c-19.6-1.59-39.56-.45-57.71,3.29-6.05,1.25-12.05,3.08-16.45,5.04-5.83,2.58-8.86,5.28-9.01,8.03-.2,3.6,4.67,7.03,14.46,10.21Z"/>
      <path class="cls-1" d="M31.86,224.83l-1.52-11.89-.5.02c-.07,1.74-.16,3.48-.24,5.23-.59,11.83-1.19,24.07,2.74,35.74l4.42,8.22.46-.2c-4.24-12.54-5.99-24.67-5.35-37.12Z"/>
      <path class="cls-1" d="M29.07,148.19c0,.2.33.54.61.79.46.41.83.61,1.12.61.02,0,.04,0,.06,0l.21-.02v-.22c.13-3.69.17-7.46.21-11.11.11-11.18.22-22.74,2.88-33.68l.02-.07-.57-1.67-.28.38c-2.37,3.19-3.92,9.39-4.27,12.77-.66,6.47-.43,14.3-.21,21.86.11,3.67.21,7.13.21,10.37Z"/>
      <path class="cls-1" d="M192.36,132.09v1.55s1.51,11.89,1.51,11.89l.5-.02c.11-2.17.26-4.4.4-6.54.4-6.05.82-12.3.41-18.43-.12-1.84-2.06-14.77-3.18-15.85l-.1-.1-1.89.46.07.25c2.4,8.71,2.34,17.9,2.29,26.79Z"/>
      <path class="cls-1" d="M193.35,215.21l-1.81,11.13-.77,18.44,1.01,8.35.28-1.79c1.88-12.2,3.29-23.21,1.53-34.57l-.24-1.56Z"/>
      <path class="cls-1" d="M186.69,262.88l.43-1.36-.86,1.14c-3.36,4.41-7.11,6.95-11.46,9.89-.75.5-1.5,1.02-2.28,1.55l-.69.48.84-.02c5.14-.14,11.79-4.55,14.02-11.67Z"/>
      <path class="cls-1" d="M43.72,26.27c-1.83-.56-2.7-.56-2.89-.03-.4,1.1,3.78,3.93,5.48,4.65,12.76,5.39,39.42,7.56,60.19,7.56,8.48,0,15.99-.36,21.16-1.01l12.85-2.85-.07-.49c-29.39,1.72-63.86,2.14-96.73-7.82Z"/>
      <path class="cls-1" d="M182.8,25.57l-.27.1c-1.26.46-2.53.96-3.76,1.44-2.5.98-5.08,1.99-7.72,2.76-1.22.36-2.6.57-3.94.77-2.84.43-5.77.88-7.66,2.74l-.4.4.56.03c.76.04,1.52.06,2.29.06,5.24,0,10.75-.98,15.43-2.77l.38-.14c2.18-.82,5.83-2.2,5.16-5.11l-.06-.28Z"/>
    </g>
  </g>
</svg>