<?xml version="1.0" encoding="UTF-8"?>
<svg id="Ebene_2" data-name="Ebene 2" xmlns="http://www.w3.org/2000/svg" viewBox="0 0 283.36 233.88">
  <defs>
    <style>
      .cls-1 {
        fill: #f7f6ec;
      }

      .cls-2 {
        fill: #86afcd;
      }
    </style>
  </defs>
  <g id="Ebene_1-2" data-name="Ebene 1">
    <path class="cls-2" d="M40.8,47.16c1.91-1.91,4.24-6.44,6.42-8.86,9.53-10.57,23.15-17.7,36.65-21.85,10.17-3.12,12.03-3.86,21.49-8.2,32.15-14.75,66-7.5,97.68,4.24,17.04,6.32,29.67,15.79,40.42,30.3,2.13,2.88,4.5,8.75,6.68,10.78,1.94,1.8,6.78,3.82,9.6,6.11,7.09,5.76,12.91,13.19,15.53,22.01,11.49,38.7,15.37,90.22-20.4,117.13-57.31,43.11-161.29,47.65-220.53,6.84C-8.77,176-11.59,89.47,27.58,56.21c3.67-3.12,10.41-6.24,13.22-9.05Z"/>
    <path class="cls-1" d="M146.34,10.4c8.69-.14,18.02,1.32,26.36,3.69,26.91,7.64,48.92,13.36,64.96,38.06,1.6,2.47,3.1,7.38,4.91,9.06,4.77,4.4,12.18,5.58,17.78,12.78,10.24,13.18,14.73,54.51,12.72,71.08-4.74,39.14-26.28,51.19-60.24,64.61-52,20.55-130.2,20.27-175.88-15.29C5.53,169.93,3.74,100.83,28.2,71.28c6.89-8.32,13.63-10.05,20.1-15.69,3.99-3.48,7-10.41,12.19-14.88,14.08-12.13,23.1-11.06,38.88-16.12,3.67-1.17,8.52-5.43,12.77-7.31,9.74-4.31,23.58-6.7,34.2-6.88ZM89.76,32.01c-15.32,3.43-38.58,17.26-32.73,35.78,1.78,5.64,6.41,10.06,7.89,16.55,1.55,6.78-.23,15.71,7.76,19.31,6.69,3.01,17.14,1.1,24.98,2.96,6.78,1.61,13.78,7.87,19.61,8.35,7.69.64,16.12-4.53,24.04-3.97,12.15.86,16.95,14.88,31.11,8.48,7.7-3.48,12.55-16.25,21.83-21.82,11.02-6.62,28.39-1.99,31.98-16.91,1.42-5.88-1.46-8.32-1.19-13.35s3.5-7.9,2.58-14.8c-1.63-12.25-24.66-23.73-35.26-27.59-24.07-8.77-49.08-13.85-73.77-3.9-8.13,3.28-30.18,18.53-32.13,27.24-1.02,4.55.32,16.05,4.2,19.01,3.48,2.65,8.03,1.7,11.96,2.88,5.31,1.59,7.48,5.53,11.3,7.91,10.01,6.24,24.23-3.24,34.82-3.37,1.91-.02,3.62.92,5.2.9,8.19-.14,16.37.46,22.25-6.55,19.88-23.7-31.06-48.19-42.35-23.14l-2.07-1.44c-.87-3.88,1.94-6.87,4.84-8.89,23.55-16.37,66.26,14.51,41.79,38.31-10.6,10.31-20.6,5.12-32.33,6.09-12.04,1-19.65,9.91-33.34,2.76-3.68-1.92-6.63-5.79-10.15-7.31-4.48-1.93-9.42-1.07-13.65-3.81-4.77-3.09-5.34-7.88-7.46-12.63-4.06,17.6,7.91,23.9,22.26,28.38,19.48,6.09,43.76,8.6,63.52,3.29,16.28-4.38,44.73-18.98,34.1-39.8-8.86-17.34-37.9-26.47-56.18-25.07-10.03.77-36.64,10.13-32.32,23.65,2.94,9.19,35.65,16,40.23,6.06,1.99-4.31-10.92-5.76-3.55-10.53,6.54-4.23,16.35,7.77,7.93,16.68-14.65,15.49-68.2-1.04-46.75-26.68s77.14-17.45,94.67,10.13c19.36,30.48-23.57,51.26-48.06,54.82-19.45,2.83-66.5-2.65-78.89-19.53-11.41-15.56-.22-36.45,11.35-48.45ZM99.37,128.93c16.82,1.63,33.12,5.41,50.18,4.35,30.22-1.87,64.74-6.51,84.7-31.41,7.22-9.01,6.42-15.41,4.55-26.4-.3-1.76-5.13-19.79-6.73-18.14.2,3.48-2.39,6.88-2.68,10.04-.67,7.53,3.88,10-.39,19.65-6.09,13.78-22.54,8.73-33.03,15.86-8.78,5.96-15.1,22.06-26.31,23.45-15.12,1.88-16.01-7.19-26.33-9.56-8.43-1.93-17.86,3.84-27.74,2.47-6.26-.87-12.16-6.59-18.82-8.25-12.57-3.13-27.9,2.22-34.24-12.9-1.94-4.63-1.79-8.99-3.07-13.52-1.87-6.66-6.51-11.86-7.25-18.52-2.13-.26-1.39,0-1.83,1.22-8.54,23.46-.85,37.66,19.03,50.13,3.31,2.08,11.82,4.59,12.5,8.46.26,1.45-.04,1.41-1.33,1.34-4.36-.23-13.04-4.34-16.95-6.64-16.3-9.61-24.83-24.17-22.67-43.5.44-3.93,2.48-7.9,3.35-11.5.28-1.15-.16-1.72-1.25-1.25-.67.29-6.09,5.89-7.01,6.97-6.17,7.2-9.39,13.99-8.06,23.8.49,3.6,5.33,13.47,5.01,15.05-.26,1.33-1.06,1.22-2.19.47-3.78-2.52-8.6-14.5-7.42-19.22l-3.09,7.81c-.69,5.62-2.35,10.96.3,16.38,4.35,8.89,20.56,3.17,27.4,17.12,7.78,15.86,1.41,28.33,3.41,42.86.4,2.94,3.37,10.64,6.8,6.08,5.48-7.27-.42-30.49,12.08-33.33,12.76-2.9,10.38,14.54,17.49,16.17,9.27,2.13,15.91-6.51,24.32-6.65,7.91-.13,13.64,6.35,22.4,4.93,6.19-1,12.31-7.33,18.39-9.55,16.46-6,23.89,5.59,36.61,3.43,13.23-2.24,16.03-22.33,34.53-17.53,5.46,1.42,8.27,7.68,14.78,4.86,7.41-3.21,6.22-22.72,9.38-29.9,3.12-7.09,11.85-13,12.66-21.39.99-10.35-8.09-20.09-16.58-24.89,5.61,23.3.08,36.35-17.93,50.62-27.64,21.89-91.11,26.24-123.71,14.64-2.25-.8-3.76-1.25-3.28-4.13ZM16.44,120.2c-.53,22.73,4.04,51.76,22.28,67.2,49.37,41.81,163.73,37.93,211.68-5.64,16.38-14.88,18.08-45.6,15.69-66.36-.2-1.78-1.81-12.7-3.04-12.66-3.27,4.85-8.84,8.91-10.71,14.59-3.3,10.04.69,22.53-8.91,30.38-11.74,9.6-17-5.23-26.57-3.91-6.33.87-13.18,12.12-19.25,15.71-17.23,10.2-27.17-6.59-42.09-1.06-7.29,2.7-13.36,9.61-21.92,10.45-7.53.75-14.38-5.83-21.58-5.76-9.03.09-20.63,13.43-30.59,2.49-3.75-4.12-5.37-19.19-12.22-10.55-3.58,4.52-1.69,11.46-2.26,16.95-.86,8.31-7.29,22.4-16.52,13.25-9.86-9.78,1.99-37.09-8.83-52.29-3.9-5.47-11.25-5.29-17.05-7.39l-8.11-5.41Z"/>
  </g>
</svg>