<?xml version="1.0" encoding="UTF-8"?>
<svg id="Ebene_2" data-name="Ebene 2" xmlns="http://www.w3.org/2000/svg" viewBox="0 0 394.82 280.96">
  <defs>
    <style>
      .cls-1 {
        fill: #f7f6ec;
      }

      .cls-2 {
        fill: #86afcd;
      }
    </style>
  </defs>
  <g id="Ebene_1-2" data-name="Ebene 1">
    <path class="cls-2" d="M323.75,41.51c36.77-16.93,73.45,9.62,70.95,49.5-3.06,48.84-57.8,62.9-91.25,86.57-15.68,11.1-28.91,25.25-44.63,36.29,21.02,8.6,30.2,33.62,10.31,49.28-20.86,16.43-68.99,19.4-94.72,17.15-17.15-1.5-53.72-6.86-62.26-23.65-9.87-19.41,4.98-32.49,19.8-42.27-8.41-4.1-17.82-10.33-24.98-16.49-26.86-23.08-38.62-52.57-73.55-67.31C18.64,124.35-2.28,125.24.2,103.07c1.55-13.77,16.9-28.31,28.86-34.07,34.89-16.8,72.7-1.89,108.54,3.32,19.06,2.77,36.52,3.62,55.76,2.15,15.77-1.2,31.57-4.31,47.27-6.18,12.18-21.7,32.68-61.65,58.91-67.47,19.83-4.4,38.32,9.23,30.24,30.25-.73,1.91-6.83,9.61-6.04,10.44Z"/>
    <path class="cls-1" d="M270.09,81.33c3.1.15,6.27-.29,9.36.13,4.27.58,16.62,5.34,18.88,4.73,5.04-1.37,9.67-12.72,12.29-16.76,26.38-40.53,82.61-14.11,68.05,33.1-9.45,30.65-51.07,44.11-75.76,60.11-20.33,13.18-37.05,32.47-57.49,44.4-2.2,1.29-4.96,2.1-7.25,3.27,2.53,17.92,31,15.42,27.87,35.32-1.87,11.86-27.77,18.22-37.73,20.22-23.99,4.82-51.26,4.55-75.3.02-13.26-2.5-40.22-8.75-31.15-27.57,3.26-6.77,33.24-19.75,27.94-27.13-.61-.85-15.21-6.66-17.87-8.14-31.46-17.43-45.69-50.68-72.72-70.14-11.11-8-23.09-13.65-36.07-17.88-8.74-2.85-16-.94-10.81-14.25,18.6-47.65,108.76-14.34,145.34-12.4,29.71,1.57,59.36-4.01,88.76-7.22,5.41-7.96,9.18-17.26,14.26-25.7,7.8-12.95,25.11-39.78,40.96-41.96,10.59-1.46,18.45,3.01,14.63,14.63-2.06,6.28-26.56,27.09-32.71,34.22l-13.47,18.99ZM298.4,39.73c3.64-3.58,20.47-15.8,11.2-21.39-6.68-4.03-19.82,5.73-24.53,10.55-21.27,21.75-38.96,68.13-56.42,95.43-.67,1.05-2.38,1.11-.54,2.49,10.73,2.1,7.7.41,11.13-5.89,18.01-33.12,32.15-54.63,59.16-81.2ZM368.98,99.82c.34-5.29-.25-10.69,0-15.99l-2.99-6.49c4.71,24.13-15.93,41.69-34.06,53.36-9.88,6.36-30.58,14.78-37.81,22.13-3.23,3.29-6.01,10.95-9.07,14.91l23.31-15.65c28.89-15.39,72.24-31.14,66.34-72.01-4.27-29.54-41.08-34.36-58.11-11.68-4.87,6.48-7.13,16.75-15.54,19.93v1.46c4.55,3.85,6.82,8.47,6,14.51,8.23-9.27,10.49-22.4,18.95-31.5,18.71-20.12,49.67-9.67,46.96,19-.16,1.69-3.6,15.37-4.97,13.5-.83-1.98.91-4.35.99-5.5ZM297.07,144.29c21.73-13.59,69.14-33.14,63.68-65.21-2.16-12.69-13.55-14.17-23.77-9.27-12.61,6.05-16.2,23.12-23.1,33.85-2.01,3.12-6.54,6.86-8.05,9.93-3.87,7.9-5.19,22-8.76,30.69ZM243.11,87.34c-35.18,4.58-67.52,9.78-103.11,4.72-33.18-4.72-81.39-24.11-111.38-2.95-5.44,3.84-14.2,12.9-11.31,19.78,2.63,1.82,21.55-6.33,26.8-7.29,29.35-5.37,55.87,7.12,82.45,17.44,29.28-8.19,60.69-11.84,91.1-11.8,4.52,0,9.83,1.74,14.54,1.57l10.92-21.46ZM250.11,111.3c8.44.61,20.03,3.29,26.47,9.01,1.73,1.54,3.99,6.26,5.86,5.91,31.44-22.5,20.57-40.26-15.65-39.7l-16.67,24.78ZM299.05,120.31c-37.03,35.87-95.93,30.1-141.6,16.25-41.69-12.63-85.06-43.96-129.1-24.74,6.54,2.85,13.64,4.7,20.03,7.95,35.71,18.14,51.92,57.33,86.56,77.28,27.84,16.04,63.1,20.58,93.72,10.2,38.3-12.98,60.7-49.38,70.4-86.94ZM230.13,113.32c-33.07-.71-65.63-.23-97.88,7.48,45.08,18.87,98.63,28.96,144.83,8-5.01-5.83-12.57-9.25-19.96-11.01-11.36-2.69-10.13-1.77-14.99,8.49l7.99.02c3.05,2.74-11.86,6.84-13.57,6.9-6.07.22-19.7-3.15-19.38-10.9l7.01,2.57,5.97-11.56ZM232.06,213.25c-25.12,8.42-51.65,7.57-76.84-.02,1.16,12.49-23.54,20.05-26.55,25.98-.72,1.41-.24,1.48.49,2.53,4.98,7.19,42.12,12.92,51.52,13.44,8.17.45,16.39-.03,24.46-.98v2.99c-15.7,1.82-32.55,1.57-48.16-1.28-10.84-1.98-23.75-5.33-31.26-13.69-4.14,12.3,13.95,15.41,22.66,17.3,28.09,6.08,59.34,6.06,87.14-1.4,9.23-2.48,26.45-6.65,24.54-18.9-5.87,7.16-14.75,11.28-23.98,11.54l-.98-2.54c4.5.4,22.14-6.89,21.76-11.51-9.29-7.07-21.81-10.58-24.83-23.44Z"/>
  </g>
</svg>