<?xml version="1.0" encoding="UTF-8"?>
<svg id="Ebene_2" data-name="Ebene 2" xmlns="http://www.w3.org/2000/svg" viewBox="0 0 205.96 324.02">
  <defs>
    <style>
      .cls-1 {
        fill: #f7f6ec;
      }

      .cls-2 {
        fill: #86afcd;
      }
    </style>
  </defs>
  <g id="Ebene_1-2" data-name="Ebene 1">
    <path class="cls-2" d="M58.46,170.49c-4.36-16.81-.68-31.11,10.81-44.1,2.92-3.3,11.6-9.13,12.9-11.22,1.8-2.91,1.53-9.52,3.01-13.82,5.87-17.07,23.94-33.39,41.15-38.33,4.64-1.33,14.39-1.38,17.2-4.08,3.08-2.96,5.08-9.05,7.94-12.53-12.98-3.77-12.51-21.28,1.48-23.26,3.87-.55,7.63.63,11.36.04,5.74-12.78,21.11-31.06,36.12-19.56,12.03,9.22,2.13,30.07-7.72,37.81-3.28,2.58-11.7,5.86-13.45,7.79-4.16,4.61-7.27,15.37-11.83,20.51-.34,1.75,5.4,8.22,6.66,11.03,10.06,22.52-2.9,53.41-22.85,66.24,1.6,16.65-3.31,32.2-14.75,44.44-2.2,2.35-11.36,8.64-11.67,9.32-.72,1.56-.19,6.85-.63,9.19-3.44,18.22-16.71,32.55-33.11,40.35-10.32,4.91-19.39,5.25-30.6,5.69l-39.36,63.87c-9.76,10.52-26.15-.83-19.63-13.76l33.54-59.71c.36-2.46-5.61-7.37-7.44-9.91-19.44-27,.08-61.16,30.87-66Z"/>
    <g>
      <path class="cls-1" d="M165.45,40.26c-1.84-.09-15.48-4.32-12.45-6.84l17.03.02c5.11-6.01,11.42-24.15,21.11-22.74,10.71,1.56,1.84,16.85-3.06,21.32s-11.35,5.48-16.14,9.59l-17.82,29.38c-.57,2.86,5.16,5.99,7.22,8.43,12.97,15.31,2.7,44.55-11.49,55.96-2.18,1.75-8.9,4.66-9.63,6.7,5.34,22.43-5.31,41.94-25.06,52.46-1.44,5.92-.07,12.25-1.81,18.17-4.7,16.02-25.96,31.88-42.51,32.39-6.69.21-11.54-2.98-16.65,2.49-14.05,15.06-24.89,45.24-38.72,62.43-2.53,3.15-5.98,5.49-4.01-.36l37.53-66.5c-2.94-5.04-8.6-7.07-12.33-12.15-11.66-15.9-5.81-36.3,10.85-45.89,8.45-4.86,17.94-4.99,26.62-8.5-12.7-17.25-6.29-36.08,8.95-49.12,2.17-1.86,8.17-4.71,9.45-6.91,1.7-2.93,2.06-13.74,3.86-18.66,4.42-12,19.88-24.8,31.9-28.61,5.16-1.64,16.79-1.93,20.08-4.32s18.37-26.57,17.06-28.76ZM191.81,17.55c-1.92-3.7-16.15,14.17-16.38,16.7,8.86-1.3,14.88-7.98,16.38-16.7ZM147.1,79.34c-29.08-5.58-68.27,37.01-34.63,56.04,23.68,13.39,45.17-8.82,48.61-31.6,1.51-9.99-3.07-22.34-13.98-24.43ZM94.52,127.59c-3.07.13-13.41,9.36-15.45,12.05-20.54,27.07,24.87,60.28,44.09,41.75,6.98-6.73,15.04-25.32,10.1-34.36-2.48-4.54-6.92-2.48-10.89-3.29-6.3-1.28-10.3-2.76-15.53-6.49-3.77-2.69-8.27-9.84-12.32-9.66ZM82.46,184.13c-13.81-2.79-37.24,4.52-42.24,18.98-12.9,37.31,41.14,45.26,61.68,19.53,6.92-8.67,11.91-21.79.93-29.28-3.65-2.49-16.25-8.41-20.38-9.24Z"/>
      <path class="cls-1" d="M52.54,202.11c12.2.96,12.44,24.76,1.04,24.44-13.7-.39-13.86-25.45-1.04-24.44ZM51.69,208.37c-4.76,1.46-2.11,14.3,1.14,14.41,3.17.1,2.62-13.08-1.14-14.41Z"/>
      <path class="cls-1" d="M144.16,83.33c7,1.05,19.48,14.32,12.1,18.79-10.51,6.36-27.43-21.09-12.1-18.79ZM152.25,97.37c2.59-1.29-8.04-10.51-9.56-10.85-.82,5.33,4.24,10.58,9.56,10.85Z"/>
      <path class="cls-1" d="M117.48,160.7c12.2,1.04,7.87,12.35-.94,15.98-5.37,2.21-20.55,2.95-17.79-5.88,2.21-7.07,11.97-10.68,18.73-10.1ZM117.05,166.22c-3.63-.91-16.04,2.48-13.89,7.27,2.48,4.88,15.12-3.02,15.59-5.63-.48-1.01-.56-1.35-1.71-1.64Z"/>
    </g>
  </g>
</svg>