<?xml version="1.0" encoding="UTF-8"?>
<svg id="Ebene_2" data-name="Ebene 2" xmlns="http://www.w3.org/2000/svg" viewBox="0 0 132.21 53.77">
  <g id="Ebene_1-2" data-name="Ebene 1">
    <path d="M3.74,10.62c1.84-1.84,9.06-5.12,10.54-2.17,1.91,3.8-3.72,1.86-5.48,1.98-6.34.42-8.69,10.52-3.23,14.14,6.57,4.35,15.19-2.22,16.91-8.66-3.43.94-6.82,2.51-10.48,2.25-6.96-.5-5.61-6.84-2.11-5.41,1.04.42.82,1.9,1.93,2.61,2.35,1.51,8.55-.1,10.93-1.43,3.69-2.05,4.89-9.38,8.96-12.42,5.39-4.03,7.68.75,3.72,5.69-2.48,3.1-6.77,4.62-8.95,7.46-3.8,4.94-4.53,11.3-11.95,13.41C2.13,31.6-4.71,19.05,3.74,10.62ZM34.55,1.6c-1.68.33-3.54,2.9-3.69,3.11-.82,1.16-1.47,2.37-2.72,4.81-.07.14-.81,1.6-.81,1.6,0,0,0,0,0,0,.92-.45,3.68-1.87,5.67-3.93,0,0,2.73-2.66,2.86-4.85,0-.1.02-.39-.16-.59-.3-.33-.92-.2-1.15-.16Z"/>
    <path d="M132.12,17.06c-.09-.15-.24-.21-.32-.24-1.58-.65-3.87,3.97-9,6.94-2.23,1.29-6.75,3.37-5-1.01,1.08-2.71,6.13-7.91,6.34-9.57.26-2.1-3.4.25-3.74.27-.05,0-.1,0-.13-.03-.19-.11-.12-.39-.29-.79-.06-.13-.11-.27-.25-.39-.24-.22-.56-.24-.65-.24,0,0-.33,0-.64.16-.94.5-9.34,9.32-15.9,12.28-2.08.94-6.88,2.08-6.81-1.35.05-2.46,8.3-1.32,8.5-6.44.09-2.21-1.18-2.75-3.27-2.76-6.57-.02-8.15,10.13-15.48,7.52-.33-1.9-.33-3.81-1.49-5.47-.34-.48-.92-1.17-1.91-1.63-2.01-.93-4.34-.14-5.3.18-.2.07-.37.13-.47.17-3.03,3.05-6.05,8.77-11.24,6.75-.32-1.89-.33-3.78-1.48-5.43-.34-.48-.92-1.17-1.91-1.63-2.01-.93-4.34-.14-5.3.18-.2.07-.37.13-.47.17-.76.88-1.68,1.93-2.73,3.12-.37.42-2.33,2.64-4.86,5.08-.41.39-.73.7-1.24,1.02-1.17.76-3.38,1.68-4.2.95-1.01-.9.08-4.22,1.51-6.43,1.24-1.92,2.85-3.15,2.45-3.85-.19-.33-.77-.46-1.16-.45-.55.02-.94.35-1.15.47-2.13,1.24-5.56,6.1-7.96,7.96-4.13,3.19-9.05,4.25-5.63-2.63,1.54-3.1,3.65-4.6,3.23-5.29-.27-.43-1.4-.26-2.1-.04-4.11,1.3-7.17,8.78-4.94,11.42,2.97,3.53,8.38-.47,11.41-2,1.03,2.47,2.44,3.26,5.07,3.49-4.66,4.06-11.38,9.58-9.39,14.22,1.5,3.51,6.47-.04,8.2-1.73,2.06-2.02,7.59-12.34,8.31-12.58,1.4-.47,3.07.56,4.76.33,2.84-.38,5.31-3.41,7.23-3.8.44-.09.93-.09,1.44-.06,1.02.19,2.09.62,3.14.43-3.27,3.88-15.26,11.36-12.69,17.36,1.5,3.51,6.48-.04,8.2-1.73,2.06-2.02,7.59-12.34,8.31-12.58,1.4-.47,3.07.56,4.76.33,2.84-.38,5.31-3.41,7.23-3.8,2.47-.5,6.32,1.46,9.34-1.08.74,5.3,4.81,5.52,9.23,4.23,6.86-2.01,11.29-8.48,16.7-12.65,1.02-.2.86.43.65,1.15-.74,2.53-8.28,9.02-3.59,11.69,4.3,2.45,11.65-3.78,12.39-4.42,1.99-1.7,4.9-4.78,4.26-5.78ZM101.71,15.91c.87,1.85-4.57,5.16-4.98,3.22-.24-1.14,3.57-3.92,4.98-3.22ZM41.81,36.48c-.04.07-.14.23-.3.45-1.34,1.84-3.58,3.06-4.11,2.62-.55-.46-.15-2.1,1.85-4.7.58-.76,6.69-7.02,7.18-6.5-2.82,5.13-4.06,7.22-4.62,8.12ZM61.43,18.69c-.38,3.45-4.49,7.47-7.16,6.61-.21-.07-.68-.23-.98-.66-1.05-1.51,1.22-4.48,3.29-7.19.27-.35.7-.89,1.44-1.17,1.01-.38,2.42-.21,3.07.67.24.32.44.83.34,1.74ZM62.21,36.44c-.04.07-.14.23-.3.45-1.34,1.84-3.58,3.06-4.1,2.62-.55-.46-.15-2.1,1.85-4.7.58-.76,6.69-7.02,7.18-6.5-2.82,5.13-4.06,7.22-4.62,8.12ZM81.83,18.64c-.38,3.45-4.49,7.47-7.16,6.61-.21-.07-.68-.23-.98-.66-1.05-1.51,1.22-4.48,3.29-7.19.27-.35.7-.89,1.44-1.17,1.01-.38,2.42-.21,3.07.67.24.32.44.83.34,1.74Z"/>
    <g>
      <path d="M84.4,53.37c-.25.25-5.87-.03-6.89-.03-.87.03-1.74.19-2.64.25-.78.09-1.61.31-2.39.09-.93-.25-.62-.75-.5-1.55.37-2.45.09-5.19.09-7.7v-12.54h12.33l-.37,2.83c-1.33-.06-9.13-2.11-9.13-.19v6.71c0,.99,4.69.25,4.94.5.03.06.03,1.27,0,1.58-.09.71-4.94-.68-4.94.71v7.05c0,2.17,8.07-.4,8.94-.15.71.22.68,2.3.56,2.45Z"/>
      <path d="M104.77,48.3c-1.61,2.7-5.87,5.4-9.07,5.4h-8.07c-1.21,0-.19-5.9-.16-6.86.09-4,.09-8.32,0-12.33-.03-.99-.81-1.99.16-2.64h7.73c8.38,0,13.66,9.25,9.41,16.43ZM94.34,33.99c-.65-.03-3.38.06-3.66.4-.53.65-.53,10.56-.43,12.11.22,3.42-.09,4.91,3.69,5.09,11.77.65,12.02-17.05.4-17.61Z"/>
      <path d="M109.89,40.48c-.03-1.37-.96-7.67-.56-8.26.37-.56,3.45-.62,3.7.25.16.56-.65,5.12-.68,6.27-.19,4.87.06,9.78.71,14.62h-3.88c.43-4.29.87-8.57.71-12.89Z"/>
      <path d="M125.16,34.39v18.85h-3.54c-.4-3.14,1.71-17.7.4-19.5-.71-.99-5.87,1.24-6.37.84l-.71-2.83h17.26l-.75,2.8c-.56.4-6.3-2.11-6.3-.16Z"/>
    </g>
  </g>
</svg>